<svg version="1.1" class="highcharts-root" style="font-family: -apple-system, BlinkMacSystemFont, &quot;Segoe UI&quot;, Roboto, Helvetica, Arial, &quot;Apple Color Emoji&quot;, &quot;Segoe UI Emoji&quot;, &quot;Segoe UI Symbol&quot;, sans-serif; font-size: 1rem;" xmlns="http://www.w3.org/2000/svg" width="580" height="250" viewBox="0 0 580 250" role="img" aria-label=""><desc>Created with Highcharts 12.5.0</desc><defs><filter id="highcharts-drop-shadow-0"><feDropShadow dx="1" dy="1" flood-color="#000000" flood-opacity="0.75" stdDeviation="2.5"></feDropShadow></filter><clipPath id="highcharts-z8ug2q3-8-"><rect x="0" y="0" width="560" height="196" fill="none"></rect></clipPath></defs><rect fill="#ffffff" class="highcharts-background" filter="none" x="0" y="0" width="580" height="250" rx="0" ry="0"></rect><rect fill="none" class="highcharts-plot-background" x="10" y="10" width="560" height="196" filter="none"></rect><g class="highcharts-grid highcharts-xaxis-grid" data-z-index="1"><path fill="none" stroke="#e6e6e6" stroke-width="0" stroke-dasharray="none" data-z-index="1" class="highcharts-grid-line" d="M 150.5 10 L 150.5 206" opacity="1"></path><path fill="none" stroke="#e6e6e6" stroke-width="0" stroke-dasharray="none" data-z-index="1" class="highcharts-grid-line" d="M 290.5 10 L 290.5 206" opacity="1"></path><path fill="none" stroke="#e6e6e6" stroke-width="0" stroke-dasharray="none" data-z-index="1" class="highcharts-grid-line" d="M 430.5 10 L 430.5 206" opacity="1"></path><path fill="none" stroke="#e6e6e6" stroke-width="0" stroke-dasharray="none" data-z-index="1" class="highcharts-grid-line" d="M 570.5 10 L 570.5 206" opacity="1"></path><path fill="none" stroke="#e6e6e6" stroke-width="0" stroke-dasharray="none" data-z-index="1" class="highcharts-grid-line" d="M 10.5 10 L 10.5 206" opacity="1"></path></g><g class="highcharts-grid highcharts-yaxis-grid" data-z-index="1"><path fill="none" stroke="#e6e6e6" stroke-width="0" stroke-dasharray="none" data-z-index="1" class="highcharts-grid-line" d="M 10 206.5 L 570 206.5" opacity="1"></path><path fill="none" stroke="#e6e6e6" stroke-width="0" stroke-dasharray="none" data-z-index="1" class="highcharts-grid-line" d="M 10 140.5 L 570 140.5" opacity="1"></path><path fill="none" stroke="#e6e6e6" stroke-width="0" stroke-dasharray="none" data-z-index="1" class="highcharts-grid-line" d="M 10 75.5 L 570 75.5" opacity="1"></path><path fill="none" stroke="#e6e6e6" stroke-width="0" stroke-dasharray="none" data-z-index="1" class="highcharts-grid-line" d="M 10 10.5 L 570 10.5" opacity="1"></path></g><rect fill="none" class="highcharts-plot-border" data-z-index="1" stroke="#cccccc" stroke-width="0" x="10" y="10" width="560" height="196"></rect><g class="highcharts-axis highcharts-xaxis" data-z-index="2"><path fill="none" class="highcharts-axis-line" stroke="#333333" stroke-width="1" data-z-index="7" d="M 10 206.5 L 570 206.5"></path></g><g class="highcharts-axis highcharts-yaxis" data-z-index="2"><path fill="none" class="highcharts-axis-line" stroke="#333333" stroke-width="0" data-z-index="7" d="M 10 10 L 10 206"></path></g><g class="highcharts-series-group" data-z-index="3" filter="none"><g class="highcharts-series highcharts-series-0 highcharts-column-series highcharts-tracker" data-z-index="0.1" opacity="1" transform="translate(10,10) scale(1 1)" clip-path="url(#highcharts-z8ug2q3-8-)"><path fill="#6B009D" d="M 39.5 10.5 L 101.5 10.5 A 3 3 0 0 1 104.5 13.5 L 104.5 196.5 A 0 0 0 0 1 104.5 196.5 L 36.5 196.5 A 0 0 0 0 1 36.5 196.5 L 36.5 13.5 A 3 3 0 0 1 39.5 10.5 Z" stroke="#ffffff" stroke-width="1" opacity="1" filter="none" class="highcharts-point highcharts-color-0"></path><path fill="#F69400" d="M 179.5 143.5 L 241.5 143.5 A 3 3 0 0 1 244.5 146.5 L 244.5 196.5 A 0 0 0 0 1 244.5 196.5 L 176.5 196.5 A 0 0 0 0 1 176.5 196.5 L 176.5 146.5 A 3 3 0 0 1 179.5 143.5 Z" stroke="#ffffff" stroke-width="1" opacity="1" filter="none" class="highcharts-point highcharts-color-1"></path><path fill="#40E0D0" d="M 319.5 186.5 L 381.5 186.5 A 3 3 0 0 1 384.5 189.5 L 384.5 196.5 A 0 0 0 0 1 384.5 196.5 L 316.5 196.5 A 0 0 0 0 1 316.5 196.5 L 316.5 189.5 A 3 3 0 0 1 319.5 186.5 Z" stroke="#ffffff" stroke-width="1" opacity="1" filter="none" class="highcharts-point highcharts-color-2"></path><path fill="#EE2A32" d="M 459.5 195.5 L 521.5 195.5 A 3 3 0 0 1 523.7360679774998 196.5 L 523.7360679774998 196.5 A 0 0 0 0 1 523.7360679774998 196.5 L 523.7360679774998 196.5 A 0 0 0 0 1 457.2639320225002 196.5 L 457.2639320225002 196.5 A 3 3 0 0 1 459.5 195.5 Z" stroke="#ffffff" stroke-width="1" opacity="1" filter="none" class="highcharts-point highcharts-color-3"></path></g><g class="highcharts-markers highcharts-series-0 highcharts-column-series" data-z-index="0.1" opacity="1" transform="translate(10,10) scale(1 1)" clip-path="none"></g></g><text x="290" class="highcharts-title" data-z-index="4" text-align="center" y="25" text-anchor="middle" transform-origin="10 22" transform="translate(0,0) scale(1 1)" style="font-size: 1.2em; font-weight: bold; fill: rgb(51, 51, 51);"></text><text x="290" class="highcharts-subtitle" data-z-index="4" text-align="center" y="24" text-anchor="middle" transform-origin="10 15" transform="translate(0,0) scale(1 1)" style="font-size: 0.8em; fill: rgb(102, 102, 102);"></text><text x="10" text-anchor="start" class="highcharts-caption" data-z-index="4" style="font-size: 0.8em; fill: rgb(102, 102, 102);" text-align="left" y="247" transform-origin="10 15" transform="translate(0,0) scale(1 1)"></text><g class="highcharts-data-labels highcharts-series-0 highcharts-column-series highcharts-tracker" data-z-index="6" opacity="1" transform="translate(10,10) scale(1 1)"><g class="highcharts-label highcharts-data-label highcharts-data-label-color-0" data-z-index="1" filter="none" transform="translate(38,11)"><text x="33" data-z-index="1" y="16" text-anchor="middle" style="font-size: 0.7em; font-weight: bold; fill: rgb(255, 255, 255);"><tspan class="highcharts-text-outline" fill="#000000" stroke="#000000" stroke-width="2px" stroke-linejoin="round">14,231,426<tspan x="33" dy="0">​</tspan></tspan>14,231,426</text></g><g class="highcharts-label highcharts-data-label highcharts-data-label-color-1" data-z-index="1" filter="none" transform="translate(181,122)"><text x="29.890625" data-z-index="1" y="16" text-anchor="middle" style="font-size: 0.7em; font-weight: bold; fill: rgb(0, 0, 0);"><tspan class="highcharts-text-outline" fill="#FFFFFF" stroke="#FFFFFF" stroke-width="2px" stroke-linejoin="round" style="">3,981,205<tspan x="29.890625" dy="0">​</tspan></tspan>3,981,205</text></g><g class="highcharts-label highcharts-data-label highcharts-data-label-color-2" data-z-index="1" filter="none" transform="translate(325,165)"><text x="25.6090087890625" data-z-index="1" y="16" text-anchor="middle" style="font-size: 0.7em; font-weight: bold; fill: rgb(0, 0, 0);"><tspan class="highcharts-text-outline" fill="#FFFFFF" stroke="#FFFFFF" stroke-width="2px" stroke-linejoin="round" style="">712,884<tspan x="25.6090087890625" dy="0">​</tspan></tspan>712,884</text></g><g class="highcharts-label highcharts-data-label highcharts-data-label-color-3" data-z-index="1" filter="none" transform="translate(482,174)"><text x="8.5" data-z-index="1" y="16" text-anchor="middle" style="font-size: 0.7em; font-weight: bold; fill: rgb(0, 0, 0);"><tspan class="highcharts-text-outline" fill="#FFFFFF" stroke="#FFFFFF" stroke-width="2px" stroke-linejoin="round" style="">4<tspan x="8.5" dy="0">​</tspan></tspan>4</text></g></g><g class="highcharts-legend highcharts-no-tooltip" data-z-index="7" visibility="hidden"><rect fill="none" class="highcharts-legend-box" rx="0" ry="0" stroke="#999999" stroke-width="0" filter="none" x="0" y="0" width="8" height="8"></rect><g data-z-index="1"><g></g></g></g><g class="highcharts-axis-labels highcharts-xaxis-labels" data-z-index="7"><text x="80" text-anchor="middle" transform="translate(0,0)" style="cursor: default; font-size: 12px; font-family: Arial, sans-serif; fill: rgb(51, 51, 51);" y="233" opacity="1">Awami League</text><text x="220" text-anchor="middle" transform="translate(0,0)" style="cursor: default; font-size: 12px; font-family: Arial, sans-serif; fill: rgb(51, 51, 51);" y="233" opacity="1">Independents</text><text x="360" text-anchor="middle" transform="translate(0,0)" style="cursor: default; font-size: 12px; font-family: Arial, sans-serif; fill: rgb(51, 51, 51);" y="233" opacity="1">Jatiya Party</text><text x="500" text-anchor="middle" transform="translate(0,0)" style="cursor: default; font-size: 12px; font-family: Arial, sans-serif; fill: rgb(51, 51, 51);" y="233" opacity="1">Others (combined)</text></g><g class="highcharts-axis-labels highcharts-yaxis-labels" data-z-index="7"></g></svg>