<svg version="1.1" class="highcharts-root" style="font-family: -apple-system, BlinkMacSystemFont, &quot;Segoe UI&quot;, Roboto, Helvetica, Arial, &quot;Apple Color Emoji&quot;, &quot;Segoe UI Emoji&quot;, &quot;Segoe UI Symbol&quot;, sans-serif; font-size: 1rem;" xmlns="http://www.w3.org/2000/svg" width="338" height="250" viewBox="0 0 338 250" role="img" aria-label="Total​300"><desc>Created with Highcharts 12.5.0</desc><defs><filter id="highcharts-drop-shadow-1"><feDropShadow dx="1" dy="1" flood-color="#000000" flood-opacity="0.75" stdDeviation="2.5"></feDropShadow></filter></defs><rect fill="#ffffff" class="highcharts-background" filter="none" x="0" y="0" width="338" height="250" rx="0" ry="0"></rect><rect fill="none" class="highcharts-plot-background" x="10" y="10" width="318" height="225" filter="none"></rect><rect fill="none" class="highcharts-plot-border" data-z-index="1" stroke="#cccccc" stroke-width="0" x="10" y="10" width="318" height="225"></rect><g class="highcharts-series-group" data-z-index="3" filter="none"><g class="highcharts-series highcharts-series-0 highcharts-pie-series highcharts-tracker" data-z-index="0.1" opacity="1" transform="translate(10,10) scale(1 1)" filter="none" clip-path="none"><path fill="#6B009D" d="M 158.97974372967764 13.045238476564052 A 3 3 0 0 1 162.06958518506514 10.045973008418898 A 102.5 102.5 0 1 1 56.94054615889017 121.99304385612817 A 3 3 0 0 1 59.73999675419503 118.72107351208678 L 94.69597761987274 116.530224030509 A 3 3 0 0 1 97.86578959573524 119.1976352727724 A 61.5 61.5 0 1 0 161.84795271109678 51.06597713517895 A 3 3 0 0 1 158.98687729581349 48.06980655162802 Z" transform="translate(0,0)" stroke="#ffffff" stroke-width="1" opacity="1" stroke-linejoin="round" class="highcharts-point highcharts-color-0"></path><path fill="#F69400" d="M 59.73999675419503 118.72107351208678 A 3 3 0 0 1 56.553919515581995 115.82424327932699 A 102.5 102.5 0 0 1 122.36058687074785 16.772243285742945 A 3 3 0 0 1 126.26580699823654 18.586621780902263 L 137.79367106035468 51.65970403668666 A 3 3 0 0 1 136.07892520936298 55.43096872697045 A 61.5 61.5 0 0 0 97.50793516774301 113.48790822726802 A 3 3 0 0 1 94.69597761987274 116.530224030509 Z" transform="translate(0,0)" stroke="#ffffff" stroke-width="1" opacity="1" stroke-linejoin="round" class="highcharts-point highcharts-color-1"></path><path fill="#40E0D0" d="M 126.26580699823654 18.586621780902263 A 3 3 0 0 1 128.19710593968924 14.737881991492884 A 102.5 102.5 0 0 1 145.25077838354164 10.926337542936281 A 3 3 0 0 1 148.6368638749829 13.586626740089557 L 152.2864062510539 48.42053637104854 A 3 3 0 0 1 149.75377249032255 51.699035559957736 A 61.5 61.5 0 0 0 141.48109867317382 53.54800176159481 A 3 3 0 0 1 137.79367106035468 51.65970403668666 Z" transform="translate(0,0)" stroke="#ffffff" stroke-width="1" opacity="1" stroke-linejoin="round" class="highcharts-point highcharts-color-2"></path><path fill="#EE2A32" d="M 148.6368638749829 13.586626740089557 A 3 3 0 0 1 151.39803663526735 10.282290414032147 A 102.5 102.5 0 0 1 155.8696956106819 10.04781020187896 A 3 3 0 0 1 158.96131404877653 13.045243937772483 L 158.974937918679 48.06981008958549 A 3 3 0 0 1 156.11563869700328 51.067675773467805 A 61.5 61.5 0 0 0 155.44356036052443 51.102917519716236 A 3 3 0 0 1 152.2864062510539 48.42053637104854 Z" transform="translate(0,0)" stroke="#ffffff" stroke-width="1" opacity="1" stroke-linejoin="round" class="highcharts-point highcharts-color-3"></path></g><g class="highcharts-markers highcharts-series-0 highcharts-pie-series" data-z-index="0.1" opacity="1" transform="translate(10,10) scale(1 1)" clip-path="none"></g></g><text x="169" text-anchor="middle" class="highcharts-title" data-z-index="4" text-align="center" y="115" transform-origin="28.515625 19" transform="translate(0,0) scale(1 1)" style="font-size: 16px; font-weight: bold; fill: rgb(51, 51, 51);">Total<tspan class="highcharts-br" dy="19" x="169">​</tspan>300</text><text x="169" class="highcharts-subtitle" data-z-index="4" text-align="center" y="24" text-anchor="middle" transform-origin="10 15" transform="translate(0,0) scale(1 1)" style="font-size: 0.8em; fill: rgb(102, 102, 102);"></text><text x="10" text-anchor="start" class="highcharts-caption" data-z-index="4" style="font-size: 0.8em; fill: rgb(102, 102, 102);" text-align="left" y="247" transform-origin="10 15" transform="translate(0,0) scale(1 1)"></text><g class="highcharts-data-labels highcharts-series-0 highcharts-pie-series highcharts-tracker" data-z-index="6" opacity="1" transform="translate(10,10) scale(1 1)"><g class="highcharts-label highcharts-data-label highcharts-data-label-color-0" data-z-index="1" filter="none" transform="translate(203,158)"><text x="16.221954345703125" data-z-index="1" y="16" text-anchor="middle" style="font-size: 0.7em; font-weight: bold; fill: white;">74%</text></g><g class="highcharts-label highcharts-data-label highcharts-data-label-color-1" data-z-index="1" filter="none" transform="translate(74,56)"><text x="16.221954345703125" data-z-index="1" y="16" text-anchor="middle" style="font-size: 0.7em; font-weight: bold; fill: white;">21%</text></g><g class="highcharts-label highcharts-data-label highcharts-data-label-color-2" data-z-index="1" filter="none" transform="translate(128,21)"><text x="13.110977172851562" data-z-index="1" y="16" text-anchor="middle" style="font-size: 0.7em; font-weight: bold; fill: white;">4%</text></g><g class="highcharts-label highcharts-data-label highcharts-data-label-color-3 highcharts-data-label-hidden" data-z-index="1" filter="none" transform="translate(142,20)" opacity="0" style="pointer-events: none;"><text x="13.110977172851562" data-z-index="1" y="16" text-anchor="middle" style="font-size: 0.7em; font-weight: bold; fill: white;">2%</text></g></g><g class="highcharts-legend highcharts-no-tooltip" data-z-index="7" visibility="hidden"><rect fill="none" class="highcharts-legend-box" rx="0" ry="0" stroke="#999999" stroke-width="0" filter="none" x="0" y="0" width="8" height="8"></rect><g data-z-index="1"><g></g></g></g></svg>