<svg xmlns="http://www.w3.org/2000/svg" id="Layer_2" data-name="Layer 2" viewBox="0 0 103.89 23.72"><path id="Layer_1-2" d="M12.08 8.02v15.7H8.07v-.62c0-.48-.43-.91-.96-.87H5.26c-3.6 0-5.12-1.72-5.11-4.75l.02-7.23h7.9V8.02H0V4.61h18.39v19.01h-4.14V8.02h-2.18Zm-4.01 5.63H4.14v3.84c0 .79.52 1.34 1.21 1.34h2.71v-5.18Zm41.09-5.63v15.6h-4.01v-9.38c-.18-.63-.58-.91-.89-.89-.61.03-1.01.6-1.04 1.21v2.34h-4.01v-2.26c0-.8-.57-1.22-1.59-1.22h-.34v4.03c0 .77 1.02 1.37 1.84 1.37h4.09v3.41h-5.9c-2.23 0-4.03-1.63-4.03-3.65V10h4.33c1.9 0 2.83 1.01 3.26 1.8.52-1.04 1.66-1.8 2.78-1.8.5 0 1 .17 1.49.6V8.01H33.28V4.6h22.19v19.01h-4.14V8.01h-2.18Zm40.85.37V4.61h13.88v19.01h-4.01v-1.75c0-2.66-2.08-4.44-3.81-4.43h-1.85v.7c0 .41.37.69.76.69h1.66v3.41h-2.65c-2.2 0-3.99-1.33-3.98-3.9v-4.13h4.3c0-3.22-4.3-2.59-4.3-5.82m8.27 6.07c.65.21 1.18.64 1.6 1.17V8.02h-5.57v.49c0 1.08 4.13 1.48 3.97 5.94ZM67.99 8h-.19V4.61h16.87v-.36c0-.46-.42-.84-.93-.84h-7.41V0h8.37c1.06 0 2.07.38 2.82 1.06s1.17 1.59 1.17 2.55v4.42h-7.68v6.19s1.17 0 2.72-.01c.42 0 .76-.31.76-.69v-.69h-1.88V9.42h6.09v4.43c0 1.99-1.78 3.6-3.98 3.6h-7.71v-2.37c0-1.22-2.37-2.87-3.43-.43-.47 1.08-1.51 1.61-3.17 1.61h-2.59v-3.23h.74c.72 0 1.88-.37 1.93-1.16V9.25c0-.84-1.52-1.23-2.49-1.24Zm9 .01h-3.18c.41.35.35 1.37.35 1.37v1.35c.46-.34 2.13-.42 2.83.09zm6.69 14.23h-11.9c-1.06 0-2.07-.38-2.82-1.05-.75-.68-1.17-1.59-1.17-2.55v-1.19h4.01v.54c0 .47.42.84.93.84h11.9c1.06 0 2.07.38 2.82 1.05.75.68 1.17 1.59 1.17 2.55v1.19h-4.01v-.54c0-.46-.42-.84-.93-.84M74.63 3.41H67.4c-.25 0-.48.09-.66.25s-.27.37-.27.6v19.37h-4.19V3.65c0-2.02 1.8-3.65 4.03-3.65h8.32zm-47.31 1.2c2.23 0 4.03 1.63 4.03 3.65V12c0 2.02-1.8 3.65-4.03 3.65h-2.95c-2.23 0-4.03-1.63-4.03-3.65V8.26c0-2.02 1.8-3.65 4.03-3.65zm.05 6.62v-2.2c0-.7-.54-1.27-1.31-1.27h-.48c-.77 0-1.25.58-1.25 1.27v2.2c0 .7.48 1.27 1.25 1.27h.48c.77 0 1.31-.58 1.31-1.27m.28 12.4V21.1c0-.46-.32-.84-.83-.84h-6.49v-3.41h7.35c1.06 0 2.07.38 2.82 1.05.75.68 1.17 1.59 1.17 2.55v3.17h-4.01Z" data-name="Layer 1" style="fill:#763d3d;stroke-width:0"/></svg>