<?xml version="1.0" encoding="UTF-8" standalone="no"?>
<!DOCTYPE svg PUBLIC "-//W3C//DTD SVG 1.1//EN" "http://www.w3.org/Graphics/SVG/1.1/DTD/svg11.dtd">
<svg width="100%" height="100%" viewBox="0 0 257 257" version="1.1" xmlns="http://www.w3.org/2000/svg" xmlns:xlink="http://www.w3.org/1999/xlink" xml:space="preserve" xmlns:serif="http://www.serif.com/" style="fill-rule:evenodd;clip-rule:evenodd;stroke-linejoin:round;stroke-miterlimit:2;">
    <g transform="matrix(1,0,0,1,-249.366667,-4506.608333)">
        <g transform="matrix(4.166667,0,0,4.166667,0,0)">
            <g transform="matrix(-1,0,0,1,456.549,-1752.095)">
                <rect x="335.128" y="2833.681" width="61.573" height="61.573" style="fill:rgb(251,235,214);"/>
            </g>
        </g>
        <g transform="matrix(4.166667,0,0,4.166667,0,0)">
            <g transform="matrix(0,-1,-1,0,97.3152,1098.7389)">
                <path d="M-2.876,-2.875C-4.682,-2.875 -6.146,-1.587 -6.146,-0C-6.146,1.589 -4.682,2.876 -2.876,2.876C-1.07,2.876 0.395,1.589 0.395,-0C0.395,-1.587 -1.07,-2.875 -2.876,-2.875" style="fill:rgb(118,62,62);fill-rule:nonzero;"/>
            </g>
        </g>
        <g transform="matrix(4.166667,0,0,4.166667,0,0)">
            <g transform="matrix(1,0,0,1,102.242,1128.6386)">
                <path d="M0,-21.031C-0.514,-21.495 -1.503,-22.407 -3.224,-22.796C-3.743,-22.525 -4.32,-22.372 -4.927,-22.372C-5.535,-22.372 -6.112,-22.525 -6.631,-22.796C-8.352,-22.407 -9.341,-21.495 -9.854,-21.031C-10.155,-20.76 -10.32,-20.341 -10.307,-19.906L-10.101,-13.177C-10.072,-12.223 -9.464,-11.421 -8.639,-11.247C-8.382,-11.193 -8.19,-10.949 -8.171,-10.653L-7.463,0.481C-7.417,1.205 -6.888,1.765 -6.25,1.765L-3.605,1.765C-2.967,1.765 -2.438,1.205 -2.391,0.481L-1.684,-10.653C-1.665,-10.949 -1.473,-11.193 -1.216,-11.247C-0.391,-11.421 0.217,-12.223 0.247,-13.177L0.452,-19.906C0.465,-20.341 0.3,-20.76 0,-21.031" style="fill:rgb(118,62,62);fill-rule:nonzero;"/>
            </g>
        </g>
        <g transform="matrix(4.166667,0,0,4.166667,0,0)">
            <g transform="matrix(0,-1,-1,0,78.1731,1093.3669)">
                <path d="M-2.875,-2.876C-4.681,-2.876 -6.146,-1.588 -6.146,-0C-6.146,1.588 -4.681,2.875 -2.875,2.875C-1.069,2.875 0.395,1.588 0.395,-0C0.395,-1.588 -1.069,-2.876 -2.875,-2.876" style="fill:rgb(118,62,62);fill-rule:nonzero;"/>
            </g>
        </g>
        <g transform="matrix(4.166667,0,0,4.166667,0,0)">
            <g transform="matrix(0,-1,-1,0,84.7556,1098.7389)">
                <path d="M-2.876,-2.875C-4.682,-2.875 -6.146,-1.587 -6.146,-0C-6.146,1.589 -4.682,2.876 -2.876,2.876C-1.07,2.876 0.395,1.589 0.395,-0C0.395,-1.587 -1.07,-2.875 -2.876,-2.875" style="fill:rgb(118,62,62);fill-rule:nonzero;"/>
            </g>
        </g>
        <g transform="matrix(4.166667,0,0,4.166667,0,0)">
            <g transform="matrix(1,0,0,1,78.5696,1109.9991)">
                <path d="M0,5.502L-0.206,-1.226C-0.23,-2.026 0.082,-2.799 0.629,-3.293L0.652,-3.315C1.134,-3.75 2.071,-4.596 3.591,-5.095C2.797,-5.905 2.297,-7.079 2.297,-8.384C2.297,-8.662 2.321,-8.933 2.364,-9.197C2.047,-9.327 1.696,-9.442 1.307,-9.53C0.788,-9.258 0.211,-9.105 -0.396,-9.105C-1.004,-9.105 -1.581,-9.258 -2.1,-9.53C-3.82,-9.14 -4.81,-8.228 -5.324,-7.764C-5.624,-7.494 -5.789,-7.074 -5.776,-6.639L-5.57,0.089C-5.541,1.043 -4.933,1.846 -4.107,2.02C-3.851,2.074 -3.659,2.318 -3.64,2.613L-2.933,13.748C-2.886,14.472 -2.357,15.032 -1.719,15.032L0.926,15.032C1.564,15.032 2.094,14.472 2.14,13.748L2.216,12.545L1.955,8.43C0.829,8.029 0.042,6.875 0,5.502" style="fill:rgb(118,62,62);fill-rule:nonzero;"/>
            </g>
        </g>
        <g transform="matrix(4.166667,0,0,4.166667,0,0)">
            <g transform="matrix(0,1,1,0,103.8919,1093.3669)">
                <path d="M2.875,-2.876C4.681,-2.876 6.146,-1.588 6.146,-0.001C6.146,1.588 4.681,2.875 2.875,2.875C1.069,2.875 -0.395,1.588 -0.395,-0.001C-0.395,-1.588 1.069,-2.876 2.875,-2.876" style="fill:rgb(118,62,62);fill-rule:nonzero;"/>
            </g>
        </g>
        <g transform="matrix(4.166667,0,0,4.166667,0,0)">
            <g transform="matrix(1,0,0,1,103.4954,1109.9991)">
                <path d="M0,5.502L0.206,-1.226C0.23,-2.026 -0.082,-2.799 -0.629,-3.293L-0.653,-3.315C-1.134,-3.75 -2.071,-4.596 -3.591,-5.095C-2.798,-5.905 -2.297,-7.079 -2.297,-8.384C-2.297,-8.662 -2.321,-8.933 -2.364,-9.197C-2.047,-9.327 -1.696,-9.442 -1.308,-9.53C-0.789,-9.258 -0.212,-9.105 0.396,-9.105C1.004,-9.105 1.581,-9.258 2.1,-9.53C3.82,-9.14 4.81,-8.228 5.323,-7.764C5.623,-7.494 5.789,-7.074 5.776,-6.639L5.57,0.089C5.541,1.043 4.933,1.846 4.107,2.02C3.851,2.074 3.659,2.318 3.64,2.613L2.932,13.748C2.886,14.472 2.356,15.032 1.719,15.032L-0.926,15.032C-1.564,15.032 -2.094,14.472 -2.14,13.748L-2.216,12.545L-1.955,8.43C-0.829,8.029 -0.042,6.875 0,5.502" style="fill:rgb(118,62,62);fill-rule:nonzero;"/>
            </g>
        </g>
        <g transform="matrix(4.166667,0,0,4.166667,0,0)">
            <g transform="matrix(1,0,0,1,89.6824,1128.6386)">
                <path d="M0,-21.031C-0.514,-21.495 -1.503,-22.407 -3.224,-22.796C-3.743,-22.525 -4.32,-22.372 -4.927,-22.372C-5.535,-22.372 -6.112,-22.525 -6.631,-22.796C-8.352,-22.407 -9.341,-21.495 -9.854,-21.031C-10.154,-20.76 -10.32,-20.341 -10.307,-19.906L-10.101,-13.177C-10.072,-12.223 -9.464,-11.421 -8.638,-11.247C-8.382,-11.193 -8.19,-10.949 -8.171,-10.653L-7.463,0.481C-7.417,1.205 -6.888,1.765 -6.25,1.765L-3.605,1.765C-2.967,1.765 -2.438,1.205 -2.391,0.481L-1.684,-10.653C-1.665,-10.949 -1.473,-11.193 -1.216,-11.247C-0.391,-11.421 0.217,-12.223 0.247,-13.177L0.452,-19.906C0.465,-20.341 0.3,-20.76 0,-21.031" style="fill:rgb(118,62,62);fill-rule:nonzero;"/>
            </g>
        </g>
        <g transform="matrix(4.166667,0,0,4.166667,0,0)">
            <g transform="matrix(0,-1,-1,0,91.033,1091.0636)">
                <path d="M-2.876,-2.875C-4.682,-2.875 -6.146,-1.587 -6.146,-0C-6.146,1.589 -4.682,2.876 -2.876,2.876C-1.07,2.876 0.395,1.589 0.395,-0C0.395,-1.587 -1.07,-2.875 -2.876,-2.875" style="fill:rgb(118,62,62);fill-rule:nonzero;"/>
            </g>
        </g>
        <g transform="matrix(4.166667,0,0,4.166667,0,0)">
            <g transform="matrix(1,0,0,1,91.1287,1119.6531)">
                <path d="M0,-4.152L-0.094,-7.228L-0.188,-4.152C-0.23,-2.779 -1.017,-1.625 -2.143,-1.224L-2.382,2.536C-2.159,2.865 -1.81,3.076 -1.419,3.076L1.226,3.076C1.619,3.076 1.971,2.862 2.194,2.53L1.955,-1.224C0.829,-1.625 0.042,-2.779 0,-4.152" style="fill:rgb(118,62,62);fill-rule:nonzero;"/>
            </g>
        </g>
        <g transform="matrix(4.166667,0,0,4.166667,0,0)">
            <g transform="matrix(1,0,0,1,87.3494,1101.1525)">
                <path d="M0,3.752C1.521,4.251 2.457,5.097 2.938,5.532L2.962,5.554C3.302,5.86 3.551,6.275 3.686,6.737C3.819,6.275 4.068,5.86 4.408,5.554L4.432,5.532C4.914,5.097 5.851,4.251 7.371,3.752C6.577,2.942 6.077,1.768 6.077,0.462C6.077,-0.625 6.425,-1.622 7,-2.393C6.552,-2.629 6.019,-2.842 5.386,-2.985C4.868,-2.714 4.291,-2.561 3.683,-2.561C3.075,-2.561 2.499,-2.714 1.979,-2.985C1.349,-2.843 0.816,-2.63 0.37,-2.394C0.945,-1.623 1.294,-0.626 1.294,0.462C1.294,1.768 0.793,2.942 0,3.752" style="fill:rgb(118,62,62);fill-rule:nonzero;"/>
            </g>
        </g>
    </g>
</svg>
