<?xml version="1.0" encoding="UTF-8" standalone="no"?>
<!DOCTYPE svg PUBLIC "-//W3C//DTD SVG 1.1//EN" "http://www.w3.org/Graphics/SVG/1.1/DTD/svg11.dtd">
<svg width="100%" height="100%" viewBox="0 0 1893 210" version="1.1" xmlns="http://www.w3.org/2000/svg" xmlns:xlink="http://www.w3.org/1999/xlink" xml:space="preserve" xmlns:serif="http://www.serif.com/" style="fill-rule:evenodd;clip-rule:evenodd;stroke-linejoin:round;stroke-miterlimit:2;">
    <g transform="matrix(1,0,0,1,-2669.698333,-324.832083)">
        <g transform="matrix(4.166667,0,0,4.166667,0,0)">
            <g transform="matrix(1,0,0,1,763.3921,107.6288)">
                <path d="M0,-10.535L-7.131,-10.535L-7.131,-22.072L-17.653,-22.072L-17.653,11.537L-7.131,11.537L-7.131,0.313L0,0.313L0,11.537L10.521,11.537L10.521,-22.072L0,-22.072L0,-10.535Z" style="fill:rgb(118,62,62);fill-rule:nonzero;"/>
            </g>
        </g>
        <g transform="matrix(4.166667,0,0,4.166667,0,0)">
            <g transform="matrix(1,0,0,1,792.1309,96.8311)">
                <path d="M0,11.061L2.653,1.595L2.827,1.595L5.523,11.061L0,11.061ZM-2.739,-11.274L-13.748,22.335L-2.802,22.335L-1.739,18.95L7.174,18.95L8.238,22.335L19.269,22.335L8.218,-11.274L-2.739,-11.274Z" style="fill:rgb(118,62,62);fill-rule:nonzero;"/>
            </g>
        </g>
        <g transform="matrix(4.166667,0,0,4.166667,0,0)">
            <g transform="matrix(1,0,0,1,840.8287,105.8532)">
                <path d="M0,-6.984L4.391,-20.297L-6.913,-20.297L-9.392,-11.915C-9.769,-10.632 -10.225,-9.777 -10.761,-9.351C-11.298,-8.923 -12.218,-8.71 -13.522,-8.71L-14.435,-8.71L-14.435,-20.297L-24.958,-20.297L-24.958,13.313L-14.435,13.313L-14.435,1.94L-11.609,1.94L-6.937,13.313L5.03,13.313L-2.043,-2.497C-1.319,-3.647 -0.638,-5.143 0,-6.984" style="fill:rgb(118,62,62);fill-rule:nonzero;"/>
            </g>
        </g>
        <g transform="matrix(4.166667,0,0,4.166667,0,0)">
            <g transform="matrix(1,0,0,1,862.5689,96.8311)">
                <path d="M0,11.061L2.652,1.595L2.826,1.595L5.521,11.061L0,11.061ZM-2.74,-11.274L-13.748,22.335L-2.803,22.335L-1.739,18.95L7.174,18.95L8.238,22.335L19.268,22.335L8.218,-11.274L-2.74,-11.274Z" style="fill:rgb(118,62,62);fill-rule:nonzero;"/>
            </g>
        </g>
        <g transform="matrix(4.166667,0,0,4.166667,0,0)">
            <g transform="matrix(1,0,0,1,928.7569,108.3685)">
                <path d="M0,-12.014L8.827,-12.014L8.827,10.798L19.349,10.798L19.349,-12.014L28.176,-12.014L28.176,-22.812L0,-22.812L0,-12.014Z" style="fill:rgb(118,62,62);fill-rule:nonzero;"/>
            </g>
        </g>
        <g transform="matrix(4.166667,0,0,4.166667,0,0)">
            <g transform="matrix(1,0,0,1,978.2154,103.5607)">
                <path d="M0,-2.399C-0.624,-1.758 -1.515,-1.438 -2.674,-1.438L-5.762,-1.438L-5.762,-8.833L-2.674,-8.833C-1.515,-8.833 -0.624,-8.521 0,-7.896C0.623,-7.272 0.935,-6.351 0.935,-5.135C0.935,-3.952 0.623,-3.04 0,-2.399M10.305,0.708C11.073,-1.051 11.457,-3.065 11.457,-5.333C11.457,-7.929 10.957,-10.181 9.957,-12.087C8.957,-13.993 7.521,-15.456 5.653,-16.475C3.783,-17.494 1.572,-18.004 -0.979,-18.004L-16.023,-18.004L-16.023,15.605L-5.587,15.605L-5.587,7.339L-4.081,7.339C-3.495,7.339 -2.968,7.697 -2.754,8.242L0.144,15.605L11.667,15.605L6.979,4.973C8.428,3.888 9.536,2.466 10.305,0.708" style="fill:rgb(118,62,62);fill-rule:nonzero;"/>
            </g>
        </g>
        <g transform="matrix(4.166667,0,0,4.166667,0,0)">
            <g transform="matrix(1,0,0,1,1005.8467,97.7681)">
                <path d="M0,9.187L10.566,9.187L10.566,0.608L0,0.608L0,-3.386L11.696,-3.386L11.696,-12.211L-10.218,-12.211L-10.218,21.398L12.131,21.398L12.131,13.329L0,13.329L0,9.187Z" style="fill:rgb(118,62,62);fill-rule:nonzero;"/>
            </g>
        </g>
        <g transform="matrix(4.166667,0,0,4.166667,0,0)">
            <g transform="matrix(1,0,0,1,1035.1524,96.8311)">
                <path d="M0,11.061L2.653,1.595L2.826,1.595L5.522,11.061L0,11.061ZM-2.739,-11.274L-13.748,22.335L-2.802,22.335L-1.739,18.95L7.174,18.95L8.238,22.335L19.269,22.335L8.218,-11.274L-2.739,-11.274Z" style="fill:rgb(118,62,62);fill-rule:nonzero;"/>
            </g>
        </g>
        <g transform="matrix(4.166667,0,0,4.166667,0,0)">
            <g transform="matrix(1,0,0,1,1086.4151,119.1657)">
                <path d="M0,-33.609L-9.521,-19.113L-19,-33.609L-27.522,-33.609L-27.522,0L-17.261,0L-17.261,-7.033L-17.349,-14.133L-17.218,-14.183L-12.435,-6.688L-6.609,-6.688L-1.826,-14.133L-1.695,-14.133L-1.782,-7.033L-1.782,0L8.479,0L8.479,-33.609L0,-33.609Z" style="fill:rgb(118,62,62);fill-rule:nonzero;"/>
            </g>
        </g>
        <g transform="matrix(4.166667,0,0,4.166667,0,0)">
            <g transform="matrix(1,0,0,1,728.0625,97.5238)">
                <path d="M0,9.675C-1.118,10.847 -2.65,11.432 -4.597,11.432L-7.562,11.432L-7.562,-1.757L-4.597,-1.757C-2.65,-1.757 -1.118,-1.171 0,0C1.117,1.172 1.675,2.784 1.675,4.838C1.675,6.891 1.117,8.504 0,9.675M4.36,-9.94C1.882,-11.32 -1.003,-12.01 -4.296,-12.01L-17.83,-12.01L-17.83,21.685L-4.296,21.685C-1.003,21.685 1.882,20.995 4.36,19.615C6.837,18.236 8.757,16.27 10.117,13.719C11.478,11.167 12.158,8.207 12.158,4.838C12.158,1.468 11.478,-1.492 10.117,-4.044C8.757,-6.595 6.837,-8.56 4.36,-9.94" style="fill:rgb(118,62,62);fill-rule:nonzero;"/>
            </g>
        </g>
        <g transform="matrix(4.166667,0,0,4.166667,0,0)">
            <g transform="matrix(1,0,0,1,921.0508,102.7144)">
                <path d="M0,-0.522C-2.108,-2.361 -5.444,-3.714 -10.007,-4.582C-12.202,-4.999 -13.743,-5.467 -14.631,-5.988C-15.52,-6.508 -15.964,-7.185 -15.964,-8.018C-15.964,-8.711 -15.686,-9.267 -15.128,-9.684C-14.571,-10.1 -13.804,-10.308 -12.829,-10.308C-11.714,-10.308 -10.852,-10.004 -10.242,-9.397C-9.691,-8.847 -9.402,-8.065 -9.349,-7.075L-9.349,-6.36L2.437,-6.36C2.437,-6.36 2.477,-7.035 2.471,-7.167C2.376,-9.534 1.727,-11.613 0.522,-13.405C-0.75,-15.296 -2.543,-16.745 -4.86,-17.752C-7.177,-18.758 -9.902,-19.261 -13.038,-19.261C-17.636,-19.261 -21.25,-18.237 -23.88,-16.19C-26.511,-14.143 -27.826,-11.331 -27.826,-7.757C-27.826,-4.564 -26.798,-2.031 -24.743,-0.158C-22.687,1.717 -19.5,3.018 -15.18,3.747C-13.09,4.094 -11.566,4.554 -10.608,5.126C-9.65,5.699 -9.171,6.436 -9.171,7.338C-9.171,8.067 -9.45,8.632 -10.007,9.03C-10.565,9.43 -11.348,9.629 -12.358,9.629C-13.543,9.629 -14.449,9.316 -15.076,8.692C-15.677,8.093 -15.99,7.238 -16.015,6.127C-16.016,6.081 -16.019,5.985 -16.019,5.985L-16.019,5.178L-28.087,5.178L-28.084,6.053C-28.083,6.178 -28.082,6.302 -28.079,6.425C-27.98,10.239 -26.6,13.225 -23.933,15.381C-21.163,17.62 -17.288,18.739 -12.306,18.739C-7.429,18.739 -3.632,17.698 -0.915,15.615C1.802,13.533 3.161,10.636 3.161,6.922C3.161,3.799 2.107,1.318 0,-0.522" style="fill:rgb(118,62,62);fill-rule:nonzero;"/>
            </g>
        </g>
        <g transform="matrix(4.166667,0,0,4.166667,0,0)">
            <g transform="matrix(0,1,1,0,665.9266,77.9597)">
                <path d="M25.199,-25.199C39.116,-25.199 50.398,-13.917 50.398,0C50.398,13.917 39.116,25.199 25.199,25.199C11.282,25.199 0,13.917 0,0C0,-13.917 11.282,-25.199 25.199,-25.199" style="fill:rgb(118,62,62);fill-rule:nonzero;"/>
            </g>
        </g>
        <g transform="matrix(4.166667,0,0,4.166667,0,0)">
            <g transform="matrix(1,0,0,1,659.1621,113.8181)">
                <path d="M0,-21.319L8.022,-21.319C9.975,-21.319 11.685,-20.882 13.154,-20.009C14.622,-19.136 15.76,-17.893 16.566,-16.278C17.373,-14.664 17.776,-12.791 17.776,-10.659C17.776,-8.527 17.373,-6.654 16.566,-5.04C15.76,-3.425 14.622,-2.182 13.154,-1.309C11.685,-0.436 9.975,0.001 8.022,0.001L0,0.001L0,-21.319ZM-5.032,-26.296L-5.032,4.977L7.507,4.977C10.559,4.977 13.232,4.337 15.528,3.056C17.823,1.776 19.602,-0.048 20.862,-2.416C22.122,-4.784 22.753,-7.532 22.753,-10.659C22.753,-13.786 22.122,-16.534 20.862,-18.902C19.602,-21.27 17.823,-23.094 15.528,-24.375C13.232,-25.655 10.559,-26.296 7.507,-26.296L-5.032,-26.296Z" style="fill:white;fill-rule:nonzero;"/>
            </g>
        </g>
        <g transform="matrix(4.166667,0,0,4.166667,0,0)">
            <g transform="matrix(1,0,0,1,668.7959,96.8495)">
                <path d="M0,12.63C-2.043,12.63 -3.651,12.069 -4.823,10.947C-5.995,9.826 -6.581,8.282 -6.581,6.315C-6.581,4.349 -5.995,2.805 -4.823,1.682C-3.651,0.561 -2.043,0 0,0L3.111,0L3.111,12.63L0,12.63Z" style="fill:white;fill-rule:nonzero;"/>
            </g>
        </g>
    </g>
</svg>
