<?xml version="1.0" encoding="UTF-8" standalone="no"?>
<!DOCTYPE svg PUBLIC "-//W3C//DTD SVG 1.1//EN" "http://www.w3.org/Graphics/SVG/1.1/DTD/svg11.dtd">
<svg width="100%" height="100%" viewBox="0 0 200 200" version="1.1" xmlns="http://www.w3.org/2000/svg" xmlns:xlink="http://www.w3.org/1999/xlink" xml:space="preserve" xmlns:serif="http://www.serif.com/" style="fill-rule:evenodd;clip-rule:evenodd;stroke-linejoin:round;stroke-miterlimit:2;">
    <g transform="matrix(1,0,0,1,-1485.416667,-1270.29)">
        <g transform="matrix(4.166667,0,0,4.166667,0,0)">
            <g transform="matrix(0,-1,-1,0,380.5,304.8696)">
                <path d="M-24,-24C-37.254,-24 -48,-13.255 -48,0C-48,13.255 -37.254,24 -24,24C-10.745,24 0,13.255 0,0C0,-13.255 -10.745,-24 -24,-24" style="fill:rgb(217,200,196);"/>
            </g>
        </g>
        <g transform="matrix(4.166667,0,0,4.166667,0,0)">
            <clipPath id="_clip1">
                <path d="M360.259,328.87C360.259,340.048 369.322,349.109 380.5,349.109C391.678,349.109 400.741,340.048 400.741,328.87C400.741,317.691 391.678,308.63 380.5,308.63C369.322,308.63 360.259,317.691 360.259,328.87Z" clip-rule="nonzero"/>
            </clipPath>
            <g clip-path="url(#_clip1)">
                <g transform="matrix(1,0,0,1,0,-3152.491)">
                    <rect x="358.946" y="3460.352" width="42.787" height="42.787" style="fill:rgb(118,62,62);"/>
                </g>
                <g transform="matrix(1,0,0,1,371.7427,339.5336)">
                    <path d="M0,-6.682L0,-9.124C0,-9.29 0.136,-9.426 0.302,-9.426L19.928,-9.426C20.094,-9.426 20.229,-9.29 20.229,-9.124L20.229,-6.682L0,-6.682ZM19.928,2.744L0.305,2.744C0.139,2.744 0.003,2.608 0.003,2.443L0.003,-6.076L20.229,-6.076L20.229,2.439C20.229,2.605 20.094,2.744 19.928,2.744" style="fill:rgb(255,255,254);"/>
                </g>
                <g transform="matrix(1,0,0,1,372.1104,325.492)">
                    <path d="M0,4.01L1.665,0.18C1.713,0.072 1.821,0 1.942,0L6.182,0L6.182,1.248L5.726,1.248C5.226,1.248 4.818,1.655 4.818,2.156C4.818,2.656 5.226,3.063 5.726,3.063L13.75,3.063C14.25,3.063 14.657,2.656 14.657,2.156C14.657,1.655 14.25,1.248 13.75,1.248L13.315,1.248L13.315,0L17.537,0C17.658,0 17.766,0.072 17.814,0.18L19.494,4.01L0,4.01Z" style="fill:rgb(255,255,254);"/>
                </g>
                <g transform="matrix(1,0,0,1,376.4614,313.1954)">
                    <path d="M0,8.476C-0.772,8.476 -1.483,8.226 -2.123,7.728C-2.132,7.722 -2.141,7.713 -2.146,7.704C-2.282,7.574 -2.913,6.947 -3.157,6.528L-7.196,3.861C-7.304,3.813 -7.371,3.704 -7.371,3.587L-5.871,0.316C-5.871,0.211 -5.816,0.111 -5.726,0.057C-5.635,0.003 -5.524,0 -5.427,0.048L-1.598,2.059L3.115,2.059C3.269,2.041 4.077,1.987 4.623,2.572C4.625,2.575 4.625,2.575 4.628,2.578L5.853,3.974C5.901,4.025 6.106,4.251 6.214,4.595C6.302,4.87 6.341,5.252 6.127,5.672L4.695,5.361L4.927,4.761C4.987,4.607 4.909,4.429 4.755,4.369C4.602,4.309 4.423,4.387 4.363,4.541L4.095,5.231L3.552,5.114L3.076,3.724C3.021,3.564 2.85,3.479 2.693,3.534C2.533,3.588 2.449,3.76 2.503,3.917L2.858,4.963L1.885,4.752C1.719,4.719 1.559,4.821 1.526,4.984C1.493,5.147 1.595,5.31 1.758,5.343L6.163,6.299C6.278,6.648 6.284,6.968 6.185,7.243C6.058,7.586 5.774,7.836 5.343,7.984L5.34,7.984C5.018,8.093 4.789,8.072 4.547,8.054C4.481,8.048 4.415,8.041 4.339,8.039L4.33,8.039C4.053,8.015 3.344,7.945 2.753,7.803C2.75,7.803 2.75,7.8 2.747,7.8C2.581,7.758 2.479,7.722 2.406,7.698C2.331,7.749 2.204,7.833 1.978,7.945C1.583,8.156 0.956,8.418 0.223,8.467C0.151,8.473 0.076,8.476 0,8.476" style="fill:rgb(255,255,254);"/>
                </g>
                <g transform="matrix(1,0,0,1,378.1289,321.8732)">
                    <path d="M0,1.221C-0.374,1.221 -0.724,1.004 -0.856,0.651C-0.898,0.549 -0.919,0.44 -0.926,0.332C-0.546,0.265 -0.175,0.151 0.178,0C0.166,0.075 0.16,0.151 0.16,0.226L0.16,1.206C0.109,1.218 0.054,1.221 0,1.221" style="fill:rgb(255,255,254);"/>
                </g>
                <g transform="matrix(1,0,0,1,376.519,322.223)">
                    <path d="M0,0.82C-0.368,0.82 -0.718,0.609 -0.872,0.259C-0.899,0.178 -0.92,0.096 -0.932,0.018C-0.79,0.033 -0.646,0.039 -0.5,0.039C-0.41,0.039 -0.32,0.036 -0.229,0.03C-0.127,0.024 -0.027,0.012 0.072,0L0.072,0.006C0.078,0.184 0.117,0.359 0.184,0.525C0.217,0.609 0.259,0.691 0.304,0.766C0.205,0.802 0.124,0.82 0,0.82" style="fill:rgb(255,255,254);"/>
                </g>
                <g transform="matrix(1,0,0,1,385.395,328.8198)">
                    <path d="M0,0.666L-8.858,0.666C-9.042,0.666 -9.191,0.516 -9.191,0.333C-9.191,0.15 -9.042,0 -8.858,0L0,0C0.183,0 0.333,0.15 0.333,0.333C0.333,0.516 0.183,0.666 0,0.666" style="fill:rgb(255,255,254);"/>
                </g>
                <g transform="matrix(1,0,0,1,384.25,319.7327)">
                    <path d="M0,8.219L-4.788,8.219C-5.102,8.219 -5.355,7.957 -5.355,7.631L-5.355,2.37C-5.355,2.186 -5.298,2.011 -5.198,1.845L-5.114,1.866L-5.108,1.866C-4.599,1.984 -3.992,2.08 -3.477,2.101L-3.446,2.101L-3.287,2.113C-2.943,2.143 -2.671,2.141 -2.349,2.047L-2.336,2.047L-2.241,2.014C-1.686,1.824 -1.233,1.468 -1.028,0.907C-0.92,0.612 -0.898,0.304 -0.944,0L0,0C0.308,0 0.567,0.259 0.567,0.567L0.567,7.625C0.57,7.945 0.305,8.219 0,8.219" style="fill:white;"/>
                </g>
            </g>
        </g>
    </g>
</svg>
