<?xml version="1.0" encoding="UTF-8" standalone="no"?>
<!DOCTYPE svg PUBLIC "-//W3C//DTD SVG 1.1//EN" "http://www.w3.org/Graphics/SVG/1.1/DTD/svg11.dtd">
<svg width="100%" height="100%" viewBox="0 0 200 200" version="1.1" xmlns="http://www.w3.org/2000/svg" xmlns:xlink="http://www.w3.org/1999/xlink" xml:space="preserve" xmlns:serif="http://www.serif.com/" style="fill-rule:evenodd;clip-rule:evenodd;stroke-linejoin:round;stroke-miterlimit:2;">
    <g transform="matrix(1,0,0,1,-1485.416667,-1603.623333)">
        <g transform="matrix(4.166667,0,0,4.166667,0,0)">
            <g transform="matrix(0,-1,-1,0,380.5,384.8696)">
                <path d="M-24,-24C-37.254,-24 -48,-13.255 -48,0C-48,13.255 -37.254,24 -24,24C-10.745,24 0,13.255 0,0C0,-13.255 -10.745,-24 -24,-24" style="fill:rgb(217,200,196);"/>
            </g>
        </g>
        <g transform="matrix(4.166667,0,0,4.166667,0,0)">
            <g transform="matrix(0,-1,-1,0,380.5002,388.6296)">
                <path d="M-20.24,-20.24C-31.418,-20.24 -40.48,-11.178 -40.48,0C-40.48,11.178 -31.418,20.24 -20.24,20.24C-9.062,20.24 0,11.178 0,0C0,-11.178 -9.062,-20.24 -20.24,-20.24" style="fill:rgb(118,62,62);"/>
            </g>
        </g>
        <g transform="matrix(4.166667,0,0,4.166667,0,0)">
            <g transform="matrix(1,0,0,1,389.2598,408.3812)">
                <path d="M0,1.216L1.684,1.216C1.544,3.596 0.596,5.759 -0.892,7.432L-2.082,6.242C-2.319,6.005 -2.704,6.005 -2.942,6.242C-3.179,6.48 -3.179,6.865 -2.942,7.103L-1.752,8.292C-3.425,9.78 -5.588,10.729 -7.968,10.867L-7.968,9.185C-7.968,8.849 -8.24,8.576 -8.576,8.576C-8.912,8.576 -9.184,8.849 -9.184,9.185L-9.184,10.867C-11.564,10.729 -13.727,9.78 -15.4,8.292L-14.21,7.103C-13.973,6.865 -13.973,6.48 -14.21,6.242C-14.448,6.005 -14.833,6.005 -15.071,6.242L-16.26,7.432C-17.748,5.759 -18.697,3.596 -18.835,1.216L-17.152,1.216C-16.817,1.216 -16.544,0.944 -16.544,0.608C-16.544,0.272 -16.817,-0 -17.152,-0L-18.835,-0C-18.697,-2.38 -17.748,-4.543 -16.26,-6.216L-15.071,-5.026C-14.952,-4.908 -14.796,-4.848 -14.641,-4.848C-14.485,-4.848 -14.33,-4.908 -14.21,-5.026C-13.973,-5.264 -13.973,-5.649 -14.21,-5.886L-15.4,-7.076C-13.727,-8.564 -11.564,-9.513 -9.184,-9.651L-9.184,-7.968C-9.184,-7.633 -8.912,-7.36 -8.576,-7.36C-8.24,-7.36 -7.968,-7.633 -7.968,-7.968L-7.968,-9.651C-5.588,-9.513 -3.425,-8.564 -1.752,-7.076L-2.942,-5.886C-3.179,-5.649 -3.179,-5.264 -2.942,-5.026C-2.823,-4.908 -2.667,-4.848 -2.512,-4.848C-2.356,-4.848 -2.201,-4.908 -2.082,-5.026L-0.892,-6.216C0.596,-4.543 1.544,-2.38 1.684,-0L0,-0C-0.335,-0 -0.608,0.272 -0.608,0.608C-0.608,0.944 -0.335,1.216 0,1.216M-0.42,-9.669C-0.427,-9.674 -0.434,-9.68 -0.441,-9.685C-0.48,-9.717 -0.52,-9.747 -0.559,-9.778C-0.596,-9.806 -0.633,-9.835 -0.671,-9.864C-0.673,-9.866 -0.676,-9.867 -0.679,-9.869C-0.759,-9.93 -0.84,-9.99 -0.922,-10.049C-0.923,-10.05 -0.925,-10.051 -0.926,-10.052C-0.966,-10.08 -1.005,-10.108 -1.045,-10.136C-1.127,-10.194 -1.211,-10.251 -1.294,-10.307C-1.413,-10.387 -1.533,-10.463 -1.654,-10.538C-1.676,-10.553 -1.699,-10.567 -1.722,-10.58C-1.751,-10.599 -1.782,-10.617 -1.812,-10.636C-3.54,-11.678 -5.528,-12.332 -7.655,-12.479C-7.959,-12.501 -8.267,-12.512 -8.576,-12.512C-8.886,-12.512 -9.193,-12.501 -9.498,-12.48C-11.625,-12.332 -13.612,-11.678 -15.34,-10.636C-15.826,-10.344 -16.291,-10.02 -16.732,-9.669C-19.757,-7.265 -21.696,-3.555 -21.696,0.608C-21.696,5.198 -19.339,9.237 -15.77,11.582C-14.968,12.108 -14.105,12.549 -13.194,12.892C-11.758,13.432 -10.201,13.728 -8.576,13.728C-6.951,13.728 -5.395,13.432 -3.958,12.892C-3.047,12.549 -2.184,12.108 -1.382,11.582C2.187,9.237 4.543,5.198 4.543,0.608C4.543,-3.555 2.604,-7.265 -0.42,-9.669" style="fill:rgb(255,255,254);fill-rule:nonzero;"/>
            </g>
        </g>
        <g transform="matrix(4.166667,0,0,4.166667,0,0)">
            <g transform="matrix(1,0,0,1,381.2793,407.0324)">
                <path d="M0,0.554C0.008,0.515 0.012,0.474 0.012,0.433L0.012,-4.86C0.012,-5.195 -0.26,-5.467 -0.596,-5.467C-0.932,-5.467 -1.204,-5.195 -1.204,-4.86L-1.204,0.433C-1.204,0.474 -1.2,0.515 -1.191,0.554C-1.737,0.786 -2.12,1.327 -2.12,1.957C-2.12,2.087 -2.103,2.213 -2.073,2.333C-2.139,2.365 -2.2,2.408 -2.253,2.465L-4.614,4.998C-4.843,5.243 -4.83,5.628 -4.584,5.857C-4.467,5.967 -4.318,6.021 -4.17,6.021C-4.007,6.021 -3.845,5.956 -3.725,5.827L-1.363,3.295C-1.359,3.29 -1.355,3.285 -1.351,3.28C-1.128,3.408 -0.871,3.481 -0.596,3.481C0.246,3.481 0.928,2.799 0.928,1.957C0.928,1.327 0.546,0.786 0,0.554" style="fill:rgb(255,255,254);fill-rule:nonzero;"/>
            </g>
        </g>
        <g transform="matrix(4.166667,0,0,4.166667,0,0)">
            <g transform="matrix(1,0,0,1,372.6455,423.342)">
                <path d="M0,-1.632C-0.347,-0.914 -0.045,-0.049 0.673,0.297C1.392,0.644 2.255,0.344 2.603,-0.375L2.89,-0.969C1.992,-1.315 1.125,-1.754 0.311,-2.276L0,-1.632Z" style="fill:rgb(255,255,254);fill-rule:nonzero;"/>
            </g>
        </g>
        <g transform="matrix(4.166667,0,0,4.166667,0,0)">
            <g transform="matrix(1,0,0,1,388.4106,423.9864)">
                <path d="M0,-2.92C-0.814,-2.398 -1.681,-1.96 -2.578,-1.614L-2.291,-1.02C-1.944,-0.301 -1.081,0 -0.362,-0.347C0.357,-0.694 0.658,-1.558 0.311,-2.276L0,-2.92Z" style="fill:rgb(255,255,254);fill-rule:nonzero;"/>
            </g>
        </g>
    </g>
</svg>
