<svg id="Layer_1" data-name="Layer 1" xmlns="http://www.w3.org/2000/svg" viewBox="0 0 33.87 63.93"><defs><style>.cls-1{fill:#f5f4f0;}</style></defs><path class="cls-1" d="M146.18,137.71h11.47c3.47,0,.95,10.8,0,10.8H146.18v26.77c0,1.25-8.76.55-10.05.15a1.4,1.4,0,0,1-.75-.6V149.18a4.31,4.31,0,0,0-.68-.67h-8.1a4.31,4.31,0,0,1-.67-.68v-9a7.41,7.41,0,0,1,1.12-1.12h8.33V123.08c0-4.29,7.22-11,11.47-11h11.7c.81,0,1.09,1.78,1.15,2.45.14,1.35.36,8.35-1.15,8.35H150c-.8,0-3.82,2.88-3.82,3.82Z" transform="translate(-125.93 -112.06)"/></svg>