<?xml version="1.0" encoding="UTF-8" standalone="no"?>
<!DOCTYPE svg PUBLIC "-//W3C//DTD SVG 1.1//EN" "http://www.w3.org/Graphics/SVG/1.1/DTD/svg11.dtd">
<svg width="100%" height="100%" viewBox="0 0 257 257" version="1.1" xmlns="http://www.w3.org/2000/svg" xmlns:xlink="http://www.w3.org/1999/xlink" xml:space="preserve" xmlns:serif="http://www.serif.com/" style="fill-rule:evenodd;clip-rule:evenodd;stroke-linejoin:round;stroke-miterlimit:2;">
    <g transform="matrix(1,0,0,1,-249.366667,-3646.233333)">
        <g transform="matrix(4.166667,0,0,4.166667,0,0)">
            <g transform="matrix(-1,0,0,1,456.549,-2165.075)">
                <rect x="335.128" y="3040.171" width="61.573" height="61.573" style="fill:rgb(251,235,214);"/>
            </g>
        </g>
        <g transform="matrix(4.166667,0,0,4.166667,0,0)">
            <g transform="matrix(1,0,0,1,104.7757,890.3895)">
                <path d="M0,26.033C-0.169,26.301 -0.986,27.308 -3.584,27.332C-3.509,25.94 -3.379,22.806 -3.565,20.153L-5.043,20.256C-4.844,23.103 -5.027,26.642 -5.088,27.665C-6.733,29.103 -10.324,30.039 -14.372,30.068C-14.438,30.069 -14.504,30.069 -14.57,30.069C-18.645,30.069 -22.138,29.158 -23.825,27.664C-23.895,26.619 -24.092,23.206 -23.902,20.302L-25.38,20.204C-25.555,22.874 -25.414,25.938 -25.331,27.332C-27.941,27.311 -28.76,26.297 -28.928,26.031C-29.26,18.772 -23.682,15.928 -23.211,15.702L-20.621,14.75L-20.961,20.417L-15.596,16.519L-13.356,16.519L-7.991,20.417L-8.332,14.747L-5.716,15.702C-5.231,15.936 0.333,18.782 0,26.033M-21.751,4.598C-21.527,4.644 -21.305,4.683 -21.086,4.711C-20.963,6.013 -20.698,7.295 -20.296,8.47C-21.911,6.822 -22.015,5.49 -21.751,4.598M-9.964,12.823C-9.951,12.841 -9.939,12.858 -9.928,12.872L-9.658,17.374L-12.313,15.445C-11.22,14.61 -10.436,13.566 -9.964,12.823M-16.626,15.436L-19.294,17.374L-19.016,12.742C-18.551,13.486 -17.753,14.571 -16.626,15.436M-16.781,13.264C-16.089,13.644 -15.32,13.858 -14.474,13.858C-13.595,13.858 -12.792,13.613 -12.068,13.18C-12.67,13.877 -13.474,14.59 -14.464,14.999C-15.41,14.608 -16.187,13.935 -16.781,13.264M-12.239,1.07C-11.74,2.835 -10.524,3.67 -9.297,4.05C-9.574,8.23 -11.5,12.376 -14.474,12.376C-17.275,12.376 -19.146,8.699 -19.587,4.778C-15.957,4.629 -13.427,2.23 -12.239,1.07M-7.831,4.319C-7.64,4.333 -7.458,4.34 -7.288,4.342C-6.928,5.228 -6.876,6.676 -8.692,8.508C-8.233,7.21 -7.941,5.776 -7.831,4.319M-5.12,14.345L-5.934,14.048C-5.708,9.388 -5.794,6.297 -5.999,4.25C-5.995,4.25 -5.99,4.249 -5.99,4.249C-6.025,3.889 -6.071,3.535 -6.127,3.187C-6.285,2.104 -6.477,1.417 -6.649,0.985C-7.878,-2.86 -10.586,-5.518 -14.428,-5.424C-22.1,-5.235 -22.913,2.769 -22.995,4.076C-23.239,6.152 -23.376,9.316 -23.164,14.106L-23.754,14.323L-23.808,14.345C-23.879,14.378 -30.883,17.707 -30.399,26.264L-30.394,26.374L-30.355,26.477C-30.318,26.578 -29.449,28.818 -25.248,28.818C-25.092,28.818 -24.929,28.813 -24.764,28.807C-22.772,30.535 -19.023,31.551 -14.574,31.551C-14.503,31.551 -14.432,31.55 -14.361,31.55C-10.871,31.525 -6.44,30.784 -4.146,28.807C0.456,28.977 1.39,26.582 1.428,26.477L1.465,26.374L1.472,26.264C1.956,17.707 -5.049,14.378 -5.12,14.345M-14.464,25.445C-14.873,25.445 -15.205,25.777 -15.205,26.185C-15.205,26.595 -14.873,26.927 -14.464,26.927C-14.055,26.927 -13.723,26.595 -13.723,26.185C-13.723,25.777 -14.055,25.445 -14.464,25.445M-14.464,20.166C-14.873,20.166 -15.205,20.498 -15.205,20.908C-15.205,21.316 -14.873,21.648 -14.464,21.648C-14.055,21.648 -13.723,21.316 -13.723,20.908C-13.723,20.498 -14.055,20.166 -14.464,20.166" style="fill:rgb(118,62,62);fill-rule:nonzero;"/>
            </g>
        </g>
    </g>
</svg>
