<svg id="Layer_1" data-name="Layer 1" xmlns="http://www.w3.org/2000/svg" viewBox="0 0 65.04 65.22"><defs><style>.cls-1{fill:#f5f4f0;}</style></defs><path class="cls-1" d="M127.36,112.34c7.48-.73,30.72-1.12,37.26.78a15.58,15.58,0,0,1,10.82,13.45,250.93,250.93,0,0,1,0,35.54A15.54,15.54,0,0,1,165,175.41c-6,2-30.66,1.73-37.83,1.09-7.76-.7-14.65-5.7-15.53-13.82-.86-7.9-.9-29.34.14-37.1C113,117.15,119.46,113.11,127.36,112.34ZM126.19,118c-4,.67-8.28,4.61-8.83,8.66-1,7.38-.75,26.7-.07,34.4a11,11,0,0,0,9.9,9.86c7.09.79,25.64.8,32.73,0,4.79-.54,9.36-4.44,9.88-9.32.86-8.05.74-25.7,0-33.88a11.09,11.09,0,0,0-9.38-9.81C154.58,117.07,131.85,117,126.19,118Z" transform="translate(-111.03 -111.74)"/><path class="cls-1" d="M140.3,128.11c23.16-3.64,26.11,29.59,6.49,32.45C123.58,163.94,120.79,131.17,140.3,128.11Zm2.84,5.09c-16.78.66-11.87,27.57,4.47,21.4C159.16,150.24,155.59,132.72,143.14,133.2Z" transform="translate(-111.03 -111.74)"/><path class="cls-1" d="M158.66,129c-2.22-2.32.93-7,4.12-5C166.77,126.58,162.15,132.61,158.66,129Z" transform="translate(-111.03 -111.74)"/></svg>