<svg id="Layer_1" data-name="Layer 1" xmlns="http://www.w3.org/2000/svg" viewBox="0 0 63.12 63.12"><defs><style>.cls-1{fill:#f5f4f0;}</style></defs><path class="cls-1" d="M165.75,112.44h-43.5a9.81,9.81,0,0,0-9.81,9.81v43.5a9.81,9.81,0,0,0,9.81,9.81h43.5a9.81,9.81,0,0,0,9.81-9.81v-43.5A9.81,9.81,0,0,0,165.75,112.44Zm-33.49,50.34h-8.82V134.44h8.82Zm-4.41-32.2a5.11,5.11,0,1,1,5.11-5.12A5.12,5.12,0,0,1,127.85,130.58Zm37.41,32.2h-8.8V149c0-3.29-.07-7.52-4.58-7.52s-5.29,3.58-5.29,7.27v14h-8.8V134.44h8.45v3.88h.12a9.25,9.25,0,0,1,8.34-4.58c8.92,0,10.56,5.87,10.56,13.5Z" transform="translate(-112.44 -112.44)"/></svg>