<?xml version="1.0" encoding="UTF-8"?>
<svg id="Layer_2" data-name="Layer 2" xmlns="http://www.w3.org/2000/svg" viewBox="0 0 425.06 62.12">
  <defs>
    <style>
      .cls-1 {
        fill: #fff;
      }

      .cls-2 {
        fill: #763e3e;
      }

      .cls-3 {
        fill: #f5f4ef;
      }
    </style>
  </defs>
  <g id="Layer_1-2" data-name="Layer 1">
    <polygon class="cls-1" points="133.44 26.35 127.17 26.35 127.17 16.2 117.91 16.2 117.91 45.76 127.17 45.76 127.17 35.89 133.44 35.89 133.44 45.76 142.7 45.76 142.7 16.2 133.44 16.2 133.44 26.35"/>
    <path class="cls-1" d="M156.31,16.2l-9.68,29.57h9.63l.94-2.98h7.84l.94,2.98h9.7l-9.72-29.57h-9.64ZM158.72,35.84l2.33-8.33h.15l2.37,8.33h-4.86Z"/>
    <path class="cls-1" d="M201.56,27.91l3.86-11.71h-9.94l-2.18,7.37c-.33,1.13-.73,1.88-1.2,2.26-.47.38-1.28.56-2.43.56h-.8v-10.19h-9.26v29.57h9.26v-10h2.49l4.11,10h10.53l-6.22-13.91c.64-1.01,1.24-2.33,1.8-3.95Z"/>
    <path class="cls-1" d="M218.28,16.2l-9.68,29.57h9.63l.94-2.98h7.84l.94,2.98h9.7l-9.72-29.57h-9.64ZM220.69,35.84l2.33-8.33h.15l2.37,8.33h-4.86Z"/>
    <polygon class="cls-1" points="278.91 25.7 286.68 25.7 286.68 45.76 295.93 45.76 295.93 25.7 303.7 25.7 303.7 16.2 278.91 16.2 278.91 25.7"/>
    <path class="cls-1" d="M331.49,32.66c.68-1.55,1.01-3.32,1.01-5.31,0-2.28-.44-4.26-1.32-5.94-.88-1.68-2.14-2.96-3.79-3.86-1.65-.9-3.59-1.34-5.83-1.34h-13.23v29.57h9.18v-7.27h1.33c.52,0,.98.32,1.17.79l2.55,6.48h10.14l-4.12-9.35c1.27-.95,2.25-2.2,2.93-3.75ZM322.42,29.92c-.55.56-1.33.85-2.35.85h-2.72v-6.51h2.72c1.02,0,1.8.27,2.35.82.55.55.82,1.36.82,2.43s-.27,1.84-.82,2.41Z"/>
    <polygon class="cls-1" points="346.73 35.02 356.02 35.02 356.02 27.47 346.73 27.47 346.73 23.96 357.02 23.96 357.02 16.2 337.74 16.2 337.74 45.76 357.4 45.76 357.4 38.66 346.73 38.66 346.73 35.02"/>
    <path class="cls-1" d="M370.1,16.2l-9.68,29.57h9.63l.94-2.98h7.84l.94,2.98h9.7l-9.72-29.57h-9.64ZM372.51,35.84l2.33-8.33h.15l2.37,8.33h-4.86Z"/>
    <polygon class="cls-1" points="417.6 16.2 409.23 28.95 400.89 16.2 393.39 16.2 393.39 45.76 402.42 45.76 402.42 39.57 402.34 33.33 402.46 33.29 406.66 39.88 411.79 39.88 416 33.33 416.11 33.33 416.04 39.57 416.04 45.76 425.06 45.76 425.06 16.2 417.6 16.2"/>
    <path class="cls-1" d="M106.2,17.98c-2.18-1.21-4.72-1.82-7.62-1.82h-11.91v29.64h11.91c2.9,0,5.44-.61,7.62-1.82,2.18-1.21,3.87-2.94,5.06-5.19,1.2-2.24,1.8-4.85,1.8-7.81s-.6-5.57-1.8-7.81c-1.2-2.24-2.89-3.97-5.06-5.19ZM102.36,35.23c-.98,1.03-2.33,1.55-4.04,1.55h-2.61v-11.6h2.61c1.71,0,3.06.52,4.04,1.55.98,1.03,1.47,2.45,1.47,4.26s-.49,3.23-1.47,4.26Z"/>
    <path class="cls-1" d="M272.13,30.83c-1.85-1.62-4.79-2.81-8.8-3.57-1.93-.37-3.29-.78-4.07-1.24-.78-.46-1.17-1.05-1.17-1.79,0-.61.25-1.1.74-1.47.49-.37,1.16-.55,2.02-.55.98,0,1.74.27,2.28.8.48.48.74,1.17.79,2.04v.63h10.37s.03-.59.03-.71c-.08-2.08-.65-3.91-1.71-5.49-1.12-1.66-2.7-2.94-4.73-3.82-2.04-.89-4.44-1.33-7.19-1.33-4.05,0-7.22.9-9.54,2.7-2.31,1.8-3.47,4.27-3.47,7.42,0,2.81.9,5.04,2.71,6.69,1.81,1.65,4.61,2.79,8.41,3.43,1.84.31,3.18.71,4.02,1.21.84.5,1.26,1.15,1.26,1.95,0,.64-.25,1.14-.74,1.49-.49.35-1.18.53-2.07.53-1.04,0-1.84-.27-2.39-.82-.53-.53-.8-1.28-.83-2.26,0-.04,0-.13,0-.13v-.71h-10.62v.77c0,.11,0,.22,0,.33.09,3.36,1.3,5.98,3.65,7.88,2.44,1.97,5.85,2.95,10.23,2.95s7.63-.92,10.02-2.75c2.39-1.83,3.59-4.38,3.59-7.65,0-2.75-.93-4.93-2.78-6.55Z"/>
    <circle class="cls-1" cx="31.06" cy="31.06" r="31.06"/>
    <path class="cls-2" d="M16.52,11.79v38.55s15.46,0,15.46,0c3.76,0,7.06-.79,9.89-2.37,2.83-1.58,5.02-3.83,6.57-6.75,1.55-2.92,2.33-6.31,2.33-10.16s-.78-7.24-2.33-10.16c-1.55-2.92-3.75-5.17-6.57-6.75-2.83-1.58-6.13-2.37-9.89-2.37h-15.46ZM22.72,17.92h9.89c2.41,0,4.51.54,6.33,1.61,1.81,1.08,3.21,2.61,4.21,4.6.99,1.99,1.49,4.3,1.49,6.93s-.5,4.94-1.49,6.93c-.99,1.99-2.4,3.52-4.21,4.6-1.81,1.08-3.92,1.61-6.33,1.61h-9.89v-26.28Z"/>
    <path class="cls-2" d="M34.6,38.85c-2.52,0-4.5-.69-5.95-2.07-1.44-1.38-2.17-3.29-2.17-5.71,0-2.42.72-4.33,2.17-5.71,1.45-1.38,3.43-2.07,5.95-2.07h3.83v15.57h-3.83Z"/>
    <g>
      <path class="cls-3" d="M392.39,58.7v-8.4h4.1c1.06,0,1.85.2,2.38.6s.8.93.8,1.58c0,.44-.11.82-.32,1.15-.22.32-.51.57-.89.75-.38.18-.81.26-1.29.26l.23-.5c.53,0,.99.09,1.4.26s.72.43.95.77.35.75.35,1.24c0,.72-.28,1.28-.85,1.69-.57.4-1.4.61-2.51.61h-4.34ZM394.32,57.23h2.28c.5,0,.88-.08,1.14-.25.26-.17.4-.43.4-.78s-.13-.62-.4-.79c-.26-.17-.64-.25-1.14-.25h-2.42v-1.42h2.08c.47,0,.83-.08,1.09-.25.25-.16.38-.41.38-.75s-.13-.58-.38-.74c-.25-.16-.61-.24-1.09-.24h-1.93v5.47Z"/>
      <path class="cls-3" d="M401.57,58.7v-8.4h6.35v1.56h-4.42v5.28h4.57v1.56h-6.5ZM403.36,55.19v-1.52h4.04v1.52h-4.04Z"/>
      <path class="cls-3" d="M411.36,58.7v-6.82h-2.69v-1.58h7.32v1.58h-2.69v6.82h-1.94Z"/>
      <path class="cls-3" d="M415.51,58.7l3.73-8.4h1.92l3.77,8.4h-2.04l-3.08-7.42h.78l-3.08,7.42h-1.99ZM417.4,56.9l.49-1.48h4.34l.5,1.48h-5.34Z"/>
    </g>
  </g>
</svg>