<?xml version="1.0" encoding="UTF-8"?>
<svg id="Layer_2" data-name="Layer 2" xmlns="http://www.w3.org/2000/svg" viewBox="0 0 129.16 47.1">
  <defs>
    <style>
      .cls-1 {
        fill: #f5f4ef;
        stroke-width: 0px;
      }

      .cls-2 {
        fill: none;
        stroke: #fff;
        stroke-miterlimit: 10;
      }
    </style>
  </defs>
  <g id="Layer_1-2" data-name="Layer 1">
    <g>
      <rect class="cls-2" x=".5" y=".5" width="128.16" height="46.1" rx="10.76" ry="10.76"/>
      <path class="cls-1" d="M25.1,17.72v15.7h-4.01v-.62c0-.48-.43-.91-.96-.87h-1.85c-3.6,0-5.12-1.72-5.11-4.75l.02-7.23h7.9v-2.23h-8.07v-3.41h18.39v19.01h-4.14v-15.6h-2.18ZM21.09,23.35h-3.93s0,3.84,0,3.84c0,.79.52,1.34,1.21,1.34h2.71v-5.18ZM62.18,17.72v15.6h-4.01v-9.38c-.18-.63-.58-.91-.89-.89-.61.03-1.01.6-1.04,1.21v2.34h-4.01v-2.26c0-.8-.57-1.22-1.59-1.22h-.34v4.03c0,.77,1.02,1.37,1.84,1.37h4.09v3.41h-5.9c-2.23,0-4.03-1.63-4.03-3.65v-8.58h4.33c1.9,0,2.83,1.01,3.26,1.8.52-1.04,1.66-1.8,2.78-1.8.5,0,1,.17,1.49.6v-2.59h-11.86v-3.41h22.19v19.01h-4.14v-15.6h-2.18ZM103.03,18.09v-3.78h13.88v19.01h-4.01v-1.75c0-2.66-2.08-4.44-3.81-4.43h-1.85s0,.7,0,.7c0,.41.37.69.76.69h1.66v3.41h-2.65c-2.2,0-3.99-1.33-3.98-3.9v-4.13h4.3c0-3.22-4.3-2.59-4.3-5.82ZM111.3,24.16c.65.21,1.18.64,1.6,1.17v-7.61h-5.57v.49c0,1.08,4.13,1.48,3.97,5.94ZM81.01,17.69h-.19v-3.39h16.87v-.36c0-.46-.42-.84-.93-.84h-7.41v-3.41h8.37c1.06,0,2.07.38,2.82,1.06.75.68,1.17,1.59,1.17,2.55v4.42h-7.68s0,6.19,0,6.19c0,0,1.17,0,2.72-.01.42,0,.76-.31.76-.69v-.69h-1.88v-3.41h6.09s0,4.43,0,4.43c0,1.99-1.78,3.6-3.98,3.6h-7.71v-2.37c0-1.22-2.37-2.87-3.43-.43-.47,1.08-1.51,1.61-3.17,1.61h-2.59v-3.23h.74c.72,0,1.88-.37,1.93-1.16v-2.62c0-.84-1.52-1.23-2.49-1.24ZM90.01,17.7h-3.18c.41.35.35,1.37.35,1.37v1.35c.46-.34,2.13-.42,2.83.09v-2.81ZM96.7,31.94h-11.9c-1.06,0-2.07-.38-2.82-1.05-.75-.68-1.17-1.59-1.17-2.55v-1.19h4.01v.54c0,.47.42.84.93.84h11.9c1.06,0,2.07.38,2.82,1.05.75.68,1.17,1.59,1.17,2.55v1.19h-4.01v-.54c0-.46-.42-.84-.93-.84ZM87.65,13.11h-7.23c-.25,0-.48.09-.66.25-.18.16-.27.37-.27.6v19.37h-4.19V13.35c0-2.02,1.8-3.65,4.03-3.65h8.32v3.41ZM40.34,14.31c2.23,0,4.03,1.63,4.03,3.65v3.74c0,2.02-1.8,3.65-4.03,3.65h-2.95c-2.23,0-4.03-1.63-4.03-3.65v-3.74c0-2.02,1.8-3.65,4.03-3.65h2.95ZM40.39,20.92v-2.2c0-.7-.54-1.27-1.31-1.27h-.48c-.77,0-1.25.58-1.25,1.27v2.2c0,.7.48,1.27,1.25,1.27h.48c.77,0,1.31-.58,1.31-1.27ZM40.67,33.32v-2.53c0-.46-.32-.84-.83-.84h-6.49v-3.41h7.35c1.06,0,2.07.38,2.82,1.05.75.68,1.17,1.59,1.17,2.55v3.17h-4.01Z"/>
    </g>
  </g>
</svg>