<?xml version="1.0" encoding="UTF-8" standalone="no"?>
<!DOCTYPE svg PUBLIC "-//W3C//DTD SVG 1.1//EN" "http://www.w3.org/Graphics/SVG/1.1/DTD/svg11.dtd">
<svg width="100%" height="100%" viewBox="0 0 257 257" version="1.1" xmlns="http://www.w3.org/2000/svg" xmlns:xlink="http://www.w3.org/1999/xlink" xml:space="preserve" xmlns:serif="http://www.serif.com/" style="fill-rule:evenodd;clip-rule:evenodd;stroke-linejoin:round;stroke-miterlimit:2;">
    <g transform="matrix(1,0,0,1,-249.366667,-3359.441667)">
        <g transform="matrix(4.166667,0,0,4.166667,0,0)">
            <g transform="matrix(-1,0,0,1,456.549,-2302.735)">
                <rect x="335.128" y="3109.001" width="61.573" height="61.573" style="fill:rgb(251,235,214);"/>
            </g>
        </g>
        <g transform="matrix(4.166667,0,0,4.166667,0,0)">
            <g transform="matrix(1,0,0,1,92.5462,847.317)">
                <path d="M0,-24.414C0.62,-23.299 1.904,-22.551 2.973,-22.095C2.866,-17.701 0.895,-13.107 -2.236,-13.107C-5.151,-13.107 -7.061,-17.092 -7.396,-21.187C-3.731,-21.403 -1.305,-23.14 0,-24.414M-8.058,-17.014C-7.012,-13.952 -5.041,-11.626 -2.236,-11.626C0.466,-11.626 2.465,-13.919 3.546,-16.976C5.728,-19.176 5.213,-20.82 4.709,-21.607C5.895,-27.282 2.272,-30.481 -2.441,-30.481C-10.893,-30.481 -9.418,-21.222 -9.418,-21.222C-9.409,-21.221 -9.399,-21.221 -9.391,-21.22C-9.776,-20.347 -9.891,-18.883 -8.058,-17.014M-3.438,-9.344C-3.438,-9.344 -3.95,-8.029 -3.947,-8.022L-3.134,-6.869L-1.339,-6.869L-0.527,-8.022C-0.533,-8.042 -1.035,-9.344 -1.035,-9.344C-1.094,-9.335 -3.379,-9.335 -3.438,-9.344M7.317,0.222C5.56,0.928 3.754,1.052 2.712,1.052C2.361,1.052 2.1,1.038 1.953,1.028L1.953,0.142C2,0.147 4.989,0.497 7.317,-0.702L7.317,0.222ZM7.107,-11.138L2.855,-12.703L2.292,-11.332L3.48,-10.895L-0.846,3.38L-1.394,-6.205L-3.079,-6.205L-3.618,3.207L-7.897,-10.916L-6.759,-11.334L-7.327,-12.704L-11.527,-11.161L-11.581,-11.138C-11.652,-11.105 -18.656,-7.777 -18.172,0.781L-18.166,0.891L-18.128,0.994C-18.091,1.095 -17.222,3.335 -13.021,3.335C-12.865,3.334 -12.702,3.33 -12.537,3.323C-10.545,5.052 -6.796,6.067 -2.347,6.067C-2.276,6.067 -2.205,6.067 -2.134,6.066C1.356,6.042 5.786,5.301 8.08,3.324C8.239,3.33 8.396,3.335 8.546,3.335C12.748,3.334 13.618,1.095 13.655,0.994L13.692,0.891L13.699,0.781C14.183,-7.777 7.178,-11.105 7.107,-11.138" style="fill:rgb(118,62,62);fill-rule:nonzero;"/>
            </g>
        </g>
    </g>
</svg>
