<?xml version="1.0" encoding="UTF-8" standalone="no"?>
<!DOCTYPE svg PUBLIC "-//W3C//DTD SVG 1.1//EN" "http://www.w3.org/Graphics/SVG/1.1/DTD/svg11.dtd">
<svg width="100%" height="100%" viewBox="0 0 257 257" version="1.1" xmlns="http://www.w3.org/2000/svg" xmlns:xlink="http://www.w3.org/1999/xlink" xml:space="preserve" xmlns:serif="http://www.serif.com/" style="fill-rule:evenodd;clip-rule:evenodd;stroke-linejoin:round;stroke-miterlimit:2;">
    <g transform="matrix(1,0,0,1,-249.366667,-4795.204167)">
        <g transform="matrix(4.166667,0,0,4.166667,0,0)">
            <g transform="matrix(-1,0,0,1,456.549,-1613.569)">
                <rect x="335.128" y="2764.418" width="61.573" height="61.573" style="fill:rgb(251,235,214);"/>
            </g>
        </g>
        <g transform="matrix(4.166667,0,0,4.166667,0,0)">
            <g transform="matrix(1,0,0,1,94.6502,1191.3268)">
                <path d="M0,-3.164L0.234,-2.622L0.766,0.279C0.929,1.056 1.396,1.426 1.861,1.447C2.045,1.455 2.232,1.409 2.403,1.31C2.581,1.206 2.742,1.046 2.864,0.833C3.102,0.419 3.189,-0.179 2.967,-0.918C2.737,-1.999 2.509,-3.08 2.28,-4.16C1.658,-5.784 0.106,-8.288 -0.828,-9.434C-1.195,-9.92 -1.687,-10.265 -2.282,-10.412C-2.834,-10.549 -3.424,-10.5 -3.974,-10.304C-4.773,-10.018 -5.496,-9.414 -5.905,-8.605L-7.411,-9.426L-9.243,-12.121C-9.701,-12.773 -10.313,-12.924 -10.793,-12.752C-10.984,-12.683 -11.156,-12.563 -11.291,-12.401C-11.433,-12.231 -11.536,-12.017 -11.579,-11.769C-11.665,-11.288 -11.527,-10.698 -11.023,-10.104L-8.914,-6.974L-6.283,-4.821C-6.283,-0.661 -6.288,3.499 -6.288,7.66C-6.288,9.078 -3.999,9.733 -3.586,7.678C-3.536,7.143 -3.272,1.646 -3.14,1.704C-3.013,1.759 -2.758,7.066 -2.702,7.665C-2.347,9.76 -0.054,9.113 0,7.66L0,-3.164Z" style="fill:rgb(118,62,62);"/>
            </g>
        </g>
        <g transform="matrix(4.166667,0,0,4.166667,0,0)">
            <g transform="matrix(1,0,0,1,92.7469,1180.2217)">
                <path d="M0,-5.43C0.361,-5.281 0.685,-5.062 0.955,-4.792C1.225,-4.523 1.442,-4.199 1.592,-3.838C1.736,-3.491 1.815,-3.111 1.815,-2.715C1.815,-2.319 1.736,-1.939 1.592,-1.592C1.443,-1.231 1.225,-0.907 0.955,-0.638C0.685,-0.368 0.361,-0.15 0,0C-0.347,0.144 -0.727,0.223 -1.123,0.223C-1.519,0.223 -1.898,0.144 -2.246,0C-2.606,-0.15 -2.93,-0.368 -3.2,-0.638C-3.47,-0.907 -3.688,-1.231 -3.838,-1.592C-3.981,-1.939 -4.061,-2.319 -4.061,-2.715C-4.061,-3.111 -3.981,-3.491 -3.838,-3.838C-3.539,-4.56 -2.968,-5.131 -2.246,-5.43C-1.898,-5.574 -1.519,-5.653 -1.123,-5.653C-0.727,-5.653 -0.347,-5.574 0,-5.43" style="fill:rgb(118,62,62);fill-rule:nonzero;"/>
            </g>
        </g>
        <g transform="matrix(4.166667,0,0,4.166667,0,0)">
            <g transform="matrix(1,0,0,1,96.055,1180.1208)">
                <path d="M0,-9.667L0,-10.665M0,-11.523L0,-14.216C0,-14.437 -0.179,-14.615 -0.399,-14.615L-11.276,-14.615L-11.276,-15.353C-11.276,-15.573 -11.456,-15.853 -11.676,-15.853C-11.896,-15.853 -12.076,-15.573 -12.076,-15.353L-12.076,5.787C-12.076,6.007 -11.897,6.186 -11.676,6.186C-11.456,6.186 -11.276,6.007 -11.276,5.787L-11.276,-6.772L-0.399,-6.772C-0.179,-6.772 0,-6.952 0,-7.172L0,-8.809" style="fill:rgb(118,62,62);"/>
            </g>
        </g>
        <g transform="matrix(4.166667,0,0,4.166667,0,0)">
            <g transform="matrix(1,0,0,1,81.033,1190.7241)">
                <path d="M0,-20.533L0,-21.724C-0.038,-21.733 0.033,-21.014 -0.002,-21.03M0,-20.014L0,-22.924C0,-23.094 -0.138,-23.231 -0.308,-23.231L-8.683,-23.231L-8.683,-23.799C-8.683,-23.969 -8.821,-24.106 -8.99,-24.106C-9.16,-24.106 -9.298,-23.969 -9.298,-23.799L-9.298,-13.789C-9.33,-13.781 -9.361,-13.772 -9.393,-13.761C-9.54,-13.708 -9.671,-13.616 -9.776,-13.491C-9.885,-13.36 -9.964,-13.195 -9.998,-13.004C-10.063,-12.634 -9.958,-12.179 -9.57,-11.722L-9.298,-11.319L-9.298,-8.115C-9.298,-7.945 -9.16,-7.807 -8.991,-7.807C-8.821,-7.807 -8.683,-7.945 -8.683,-8.115L-8.683,-10.407L-7.945,-9.312L-5.92,-7.654C-5.92,-4.451 -5.923,-1.248 -5.923,1.956C-5.924,3.048 -4.162,3.552 -3.844,1.969C-3.805,1.558 -3.602,-2.675 -3.5,-2.63C-3.402,-2.588 -3.206,1.499 -3.163,1.96C-2.889,3.573 -1.124,3.075 -1.082,1.956L-1.082,-6.38L-0.902,-5.963L-0.492,-3.728C-0.367,-3.131 -0.007,-2.845 0.351,-2.829C0.493,-2.823 0.637,-2.859 0.768,-2.935C0.906,-3.014 1.029,-3.137 1.124,-3.302C1.307,-3.621 1.374,-4.081 1.202,-4.65L0.673,-7.146C0.195,-8.397 -1,-10.325 -1.72,-11.207C-2.002,-11.581 -2.381,-11.847 -2.839,-11.96C-3.264,-12.066 -3.719,-12.029 -4.142,-11.877C-4.758,-11.657 -5.313,-11.192 -5.629,-10.568L-6.788,-11.201L-8.199,-13.276C-8.345,-13.484 -8.512,-13.626 -8.683,-13.711L-8.683,-17.786L-0.308,-17.786C-0.138,-17.786 0,-17.925 0,-18.094L0,-19.662C-0.038,-19.671 0.033,-19.821 -0.002,-19.836M-2.548,-16.675C-2.27,-16.559 -2.021,-16.392 -1.812,-16.184C-1.604,-15.976 -1.437,-15.727 -1.322,-15.449C-1.211,-15.181 -1.15,-14.889 -1.15,-14.584C-1.15,-14.279 -1.211,-13.987 -1.322,-13.72C-1.437,-13.442 -1.604,-13.193 -1.812,-12.985C-2.021,-12.777 -2.27,-12.609 -2.548,-12.494C-2.815,-12.383 -3.107,-12.322 -3.412,-12.322C-3.717,-12.322 -4.009,-12.383 -4.277,-12.494C-4.555,-12.609 -4.804,-12.777 -5.012,-12.985C-5.22,-13.193 -5.388,-13.442 -5.502,-13.72C-5.613,-13.987 -5.674,-14.279 -5.674,-14.584C-5.674,-14.889 -5.613,-15.181 -5.502,-15.449C-5.272,-16.005 -4.833,-16.445 -4.277,-16.675C-4.009,-16.785 -3.717,-16.846 -3.412,-16.846C-3.107,-16.846 -2.815,-16.785 -2.548,-16.675" style="fill:rgb(118,62,62);"/>
            </g>
        </g>
        <g transform="matrix(4.166667,0,0,4.166667,0,0)">
            <g transform="matrix(1,0,0,1,108.4744,1190.7241)">
                <path d="M0,-20.533L0,-21.724C-0.038,-21.733 0.025,-20.674 -0.01,-20.69M0,-20.014L0,-22.924C0,-23.094 -0.138,-23.231 -0.307,-23.231L-8.683,-23.231L-8.683,-23.799C-8.683,-23.969 -8.82,-24.106 -8.99,-24.106C-9.16,-24.106 -9.297,-23.969 -9.297,-23.799L-9.297,-13.789C-9.33,-13.781 -9.362,-13.772 -9.392,-13.761C-9.54,-13.708 -9.671,-13.616 -9.776,-13.491C-9.885,-13.36 -9.964,-13.195 -9.998,-13.004C-10.063,-12.634 -9.958,-12.179 -9.57,-11.722L-9.298,-11.319L-9.298,-8.115C-9.298,-7.945 -9.16,-7.807 -8.99,-7.807C-8.82,-7.807 -8.683,-7.945 -8.683,-8.115L-8.683,-10.407L-7.945,-9.312L-5.919,-7.654C-5.919,-4.451 -5.923,-1.248 -5.923,1.956C-5.924,3.048 -4.161,3.552 -3.843,1.969C-3.804,1.558 -3.602,-2.675 -3.499,-2.63C-3.401,-2.588 -3.206,1.499 -3.163,1.96C-2.889,3.573 -1.124,3.075 -1.082,1.956L-1.082,-6.38L-0.902,-5.963L-0.492,-3.728C-0.367,-3.131 -0.007,-2.845 0.351,-2.829C0.493,-2.823 0.637,-2.859 0.768,-2.935C0.906,-3.014 1.029,-3.137 1.124,-3.302C1.307,-3.621 1.374,-4.081 1.203,-4.65C1.026,-5.482 0.85,-6.314 0.673,-7.146C0.195,-8.397 -1,-10.325 -1.719,-11.207C-2.002,-11.581 -2.38,-11.847 -2.839,-11.96C-3.264,-12.066 -3.718,-12.029 -4.142,-11.877C-4.757,-11.657 -5.313,-11.192 -5.628,-10.568L-6.788,-11.201L-8.199,-13.276C-8.345,-13.484 -8.512,-13.626 -8.683,-13.711L-8.683,-17.786L-0.308,-17.786C-0.138,-17.786 0,-17.925 0,-18.094L0,-19.662C-0.038,-19.671 0.034,-19.829 0,-19.844M-2.548,-16.675C-2.27,-16.559 -2.021,-16.392 -1.812,-16.184C-1.605,-15.976 -1.437,-15.727 -1.322,-15.449C-1.211,-15.181 -1.15,-14.889 -1.15,-14.584C-1.15,-14.279 -1.211,-13.987 -1.322,-13.72C-1.437,-13.442 -1.605,-13.193 -1.812,-12.985C-2.02,-12.777 -2.27,-12.609 -2.548,-12.494C-2.815,-12.383 -3.107,-12.322 -3.412,-12.322C-3.717,-12.322 -4.009,-12.383 -4.277,-12.494C-4.555,-12.609 -4.804,-12.777 -5.012,-12.985C-5.22,-13.193 -5.387,-13.442 -5.502,-13.72C-5.613,-13.987 -5.674,-14.279 -5.674,-14.584C-5.674,-14.889 -5.613,-15.181 -5.502,-15.449C-5.272,-16.005 -4.833,-16.445 -4.277,-16.675C-4.009,-16.785 -3.717,-16.846 -3.412,-16.846C-3.107,-16.846 -2.815,-16.785 -2.548,-16.675" style="fill:rgb(118,62,62);"/>
            </g>
        </g>
    </g>
</svg>
