<svg id="Layer_1" data-name="Layer 1" xmlns="http://www.w3.org/2000/svg" viewBox="0 0 61.57 61.57"><defs><style>.cls-1{fill:#faead6;}.cls-2,.cls-4{fill:#773f3f;}.cls-3{fill:#fff;}.cls-4{fill-rule:evenodd;}</style></defs><rect class="cls-1" width="61.57" height="61.57"/><polygon class="cls-1" points="12.13 12.88 42.71 22.78 24.98 25.53 12.13 12.88"/><path class="cls-2" d="M402.32,279.9l16.93-5.63a3.13,3.13,0,0,1,.83-.28,1.76,1.76,0,0,1,1.12,0,1.79,1.79,0,0,1,.93.63,3.11,3.11,0,0,1,.51.72L433,289.87Z" transform="translate(-390.27 -267.06)"/><path class="cls-1" d="M402.26,279.9a.07.07,0,0,1,0-.06l16.91-5.63a3.36,3.36,0,0,1,.85-.28,1.84,1.84,0,0,1,1.16,0,1.94,1.94,0,0,1,1,.66,3.12,3.12,0,0,1,.52.72l10.39,14.5a.08.08,0,0,1,0,.08.06.06,0,0,1-.07,0L402.3,280A.08.08,0,0,1,402.26,279.9Zm20.32-4.5a3.62,3.62,0,0,0-.5-.7,1.7,1.7,0,0,0-.9-.62,1.76,1.76,0,0,0-1.09,0,3.81,3.81,0,0,0-.82.27l-16.73,5.57,30.32,9.84Z" transform="translate(-390.27 -267.06)"/><rect class="cls-3" x="403.43" y="278.48" width="26.98" height="17.36" transform="translate(334.58 421.92) rotate(-162.02)"/><path class="cls-1" d="M401.35,291.23l5.35-16.51a.06.06,0,0,1,.09,0L432.45,283a.07.07,0,0,1,.05.09l-5.36,16.51a.08.08,0,0,1-.09,0l-25.66-8.33S401.33,291.26,401.35,291.23Zm31-8.12-25.52-8.28-5.32,16.38L427,299.49Z" transform="translate(-390.27 -267.06)"/><polygon class="cls-2" points="42.76 22.8 25.22 25.49 36.9 40.88 42.76 22.8"/><path class="cls-1" d="M427.23,308a.08.08,0,0,1-.05.05h0l0,0L415.43,292.6a.08.08,0,0,1,0-.07.09.09,0,0,1,.06,0L433,289.8l.06,0a.06.06,0,0,1,0,.07m-17.48,2.72,11.53,15.19L432.93,290Z" transform="translate(-390.27 -267.06)"/><polygon class="cls-2" points="12.06 12.84 24.68 25.32 6.19 30.91 12.06 12.84"/><path class="cls-1" d="M402.26,279.88a.07.07,0,0,1,.05,0,0,0,0,0,1,.06,0L415,292.33a.07.07,0,0,1,0,.07s0,0-.05.05L396.48,298h0l0,0s0,0,0-.06m6-17.93-5.79,17.84,18.26-5.52Z" transform="translate(-390.27 -267.06)"/><path class="cls-2" d="M396.47,298l16.9-5.64a3.13,3.13,0,0,1,.83-.28,1.76,1.76,0,0,1,1.12,0,1.79,1.79,0,0,1,.93.63,3.54,3.54,0,0,1,.51.72l10.37,14.49Z" transform="translate(-390.27 -267.06)"/><path class="cls-1" d="M396.4,298a.06.06,0,0,1,.05-.06l16.89-5.64a3.26,3.26,0,0,1,.84-.29,1.91,1.91,0,0,1,1.16,0,1.82,1.82,0,0,1,1,.66,3.53,3.53,0,0,1,.52.72l10.36,14.49a.06.06,0,0,1,0,.08.06.06,0,0,1-.07,0L396.45,298A.06.06,0,0,1,396.4,298Zm20.3-4.51a3.16,3.16,0,0,0-.51-.7,1.64,1.64,0,0,0-.89-.62,1.73,1.73,0,0,0-1.08,0,3.25,3.25,0,0,0-.83.27L396.68,298,427,307.8Z" transform="translate(-390.27 -267.06)"/><path class="cls-4" d="M442,307.13l.28.65.65,3.52c.19.94.76,1.38,1.32,1.41a1.21,1.21,0,0,0,.66-.17,1.61,1.61,0,0,0,.56-.57,2.66,2.66,0,0,0,.12-2.12c-.28-1.31-.55-2.62-.83-3.93a29.73,29.73,0,0,0-3.76-6.38,3.09,3.09,0,0,0-1.76-1.18,3.51,3.51,0,0,0-2,.13,4.23,4.23,0,0,0-2.34,2.05l-1.82-1-2.22-3.26a1.63,1.63,0,0,0-1.87-.77,1.51,1.51,0,0,0-.61.43,1.56,1.56,0,0,0-.34.76,2.44,2.44,0,0,0,.67,2l2.55,3.79,3.19,2.6q0,7.56,0,15.11a1.64,1.64,0,0,0,3.27,0c.06-.65.38-7.3.54-7.23s.46,6.49.53,7.22a1.64,1.64,0,0,0,3.27,0Zm0,0" transform="translate(-390.27 -267.06)"/><path class="cls-2" d="M439.67,290.94a3.66,3.66,0,0,1,1.15.78,3.37,3.37,0,0,1,.77,1.15,3.56,3.56,0,0,1,0,2.72,3.51,3.51,0,0,1-.77,1.16,3.55,3.55,0,0,1-3.87.77,3.51,3.51,0,0,1-1.93-1.93,3.56,3.56,0,0,1,0-2.72,3.58,3.58,0,0,1,1.93-1.93,3.56,3.56,0,0,1,2.72,0Zm-4,3.29" transform="translate(-390.27 -267.06)"/></svg>