<?xml version="1.0" encoding="UTF-8" standalone="no"?>
<!DOCTYPE svg PUBLIC "-//W3C//DTD SVG 1.1//EN" "http://www.w3.org/Graphics/SVG/1.1/DTD/svg11.dtd">
<svg width="100%" height="100%" viewBox="0 0 257 257" version="1.1" xmlns="http://www.w3.org/2000/svg" xmlns:xlink="http://www.w3.org/1999/xlink" xml:space="preserve" xmlns:serif="http://www.serif.com/" style="fill-rule:evenodd;clip-rule:evenodd;stroke-linejoin:round;stroke-miterlimit:2;">
    <g transform="matrix(1,0,0,1,-249.366667,-4219.816667)">
        <g transform="matrix(4.166667,0,0,4.166667,0,0)">
            <g transform="matrix(-1,0,0,1,456.549,-1889.755)">
                <rect x="335.128" y="2902.511" width="61.573" height="61.573" style="fill:rgb(251,235,214);"/>
            </g>
        </g>
        <g transform="matrix(4.166667,0,0,4.166667,0,0)">
            <g transform="matrix(1,0,0,1,81.1912,1040.9654)">
                <path d="M0,0.356C0,-1.707 -1.172,-3.503 -2.895,-4.394C-2.939,-4.409 -2.969,-4.423 -2.998,-4.453C-3.711,-4.809 -4.512,-5.002 -5.358,-5.002C-8.312,-5.002 -10.717,-2.598 -10.717,0.356L-10.717,5.358L0,5.358L0,0.356Z" style="fill:rgb(118,62,62);fill-rule:nonzero;"/>
            </g>
        </g>
        <g transform="matrix(4.166667,0,0,4.166667,0,0)">
            <g transform="matrix(1,0,0,1,82.6013,1048.5644)">
                <path d="M0,-0.118C0,-0.504 -0.312,-0.816 -0.698,-0.816L-12.602,-0.816C-12.988,-0.816 -13.299,-0.504 -13.299,-0.118L-13.299,0.698L0,0.698L0,-0.118Z" style="fill:rgb(118,62,62);fill-rule:nonzero;"/>
            </g>
        </g>
        <g transform="matrix(4.166667,0,0,4.166667,0,0)">
            <g transform="matrix(1,0,0,1,84.7239,1049.2627)">
                <path d="M0,-1.514C-0.386,-1.514 -0.698,-1.202 -0.698,-0.816L-0.698,0L12.602,0L12.602,-0.816C12.602,-1.202 12.291,-1.514 11.904,-1.514L0,-1.514Z" style="fill:rgb(118,62,62);fill-rule:nonzero;"/>
            </g>
        </g>
        <g transform="matrix(4.166667,0,0,4.166667,0,0)">
            <g transform="matrix(1,0,0,1,85.199,1040.9654)">
                <path d="M0,0.356L0,5.358L10.717,5.358L10.717,0.356C10.717,-2.494 8.476,-4.839 5.655,-4.987C5.641,-4.987 5.625,-4.987 5.611,-4.973L5.477,-4.973C5.418,-4.973 5.373,-4.973 5.329,-4.987C5.314,-4.987 5.299,-4.987 5.284,-5.002C2.36,-4.957 0,-2.568 0,0.356" style="fill:rgb(118,62,62);fill-rule:nonzero;"/>
            </g>
        </g>
        <g transform="matrix(4.166667,0,0,4.166667,0,0)">
            <g transform="matrix(1,0,0,1,98.7508,1048.5644)">
                <path d="M0,-0.118L0,0.698L13.3,0.698L13.3,-0.118C13.3,-0.504 12.988,-0.816 12.602,-0.816L0.698,-0.816C0.312,-0.816 0,-0.504 0,-0.118" style="fill:rgb(118,62,62);fill-rule:nonzero;"/>
            </g>
        </g>
        <g transform="matrix(4.166667,0,0,4.166667,0,0)">
            <g transform="matrix(1,0,0,1,99.9236,1040.9654)">
                <path d="M0,0.356L0,1.054C0,1.098 0.015,1.128 0.015,1.172C0.015,1.217 0.015,1.247 0,1.292L0,5.358L10.717,5.358L10.717,0.356C10.717,-2.598 8.312,-5.002 5.358,-5.002C4.631,-5.002 3.934,-4.854 3.31,-4.586C3.221,-4.512 3.117,-4.468 2.999,-4.438C1.232,-3.577 0,-1.751 0,0.356" style="fill:rgb(118,62,62);fill-rule:nonzero;"/>
            </g>
        </g>
        <g transform="matrix(4.166667,0,0,4.166667,0,0)">
            <g transform="matrix(1,0,0,1,112.763,1052.113)">
                <path d="M0,3.562L-5.7,3.562L-5.7,-1.425L-7.125,-1.425L-7.125,3.562L-21.375,3.562L-21.375,-1.425L-22.799,-1.425L-22.799,3.562L-36.336,3.562L-36.336,-1.425L-37.761,-1.425L-37.761,3.562L-44.174,3.562C-44.574,3.562 -44.886,3.874 -44.886,4.275C-44.886,4.675 -44.574,4.987 -44.174,4.987L0,4.987C0.401,4.987 0.712,4.675 0.712,4.275C0.712,3.874 0.401,3.562 0,3.562" style="fill:rgb(118,62,62);fill-rule:nonzero;"/>
            </g>
        </g>
        <g transform="matrix(4.166667,0,0,4.166667,0,0)">
            <g transform="matrix(1,0,0,1,82.6165,1025.8554)">
                <path d="M0,15.466L0,15.57L1.158,15.57L1.158,15.466C1.158,11.933 3.874,9.009 7.347,8.713L7.347,5.254C7.347,3.829 6.798,2.478 5.774,1.469C4.765,0.46 3.429,-0.104 2.003,-0.104C-0.936,-0.104 -3.34,2.3 -3.34,5.254L-3.34,9.633C-1.336,10.805 0,12.987 0,15.466" style="fill:rgb(118,62,62);fill-rule:nonzero;"/>
            </g>
        </g>
        <g transform="matrix(4.166667,0,0,4.166667,0,0)">
            <g transform="matrix(1,0,0,1,97.3406,1025.8554)">
                <path d="M0,15.466L0,15.57L1.158,15.57L1.158,15.466C1.158,12.883 2.598,10.642 4.735,9.499L4.735,5.254C4.735,3.814 4.186,2.464 3.177,1.469C2.167,0.46 0.816,-0.104 -0.608,-0.104C-3.562,-0.104 -5.952,2.3 -5.952,5.254L-5.952,8.742C-2.597,9.143 0,12.008 0,15.466" style="fill:rgb(118,62,62);fill-rule:nonzero;"/>
            </g>
        </g>
    </g>
</svg>
