<?xml version="1.0" encoding="UTF-8" standalone="no"?>
<!DOCTYPE svg PUBLIC "-//W3C//DTD SVG 1.1//EN" "http://www.w3.org/Graphics/SVG/1.1/DTD/svg11.dtd">
<svg width="100%" height="100%" viewBox="0 0 257 257" version="1.1" xmlns="http://www.w3.org/2000/svg" xmlns:xlink="http://www.w3.org/1999/xlink" xml:space="preserve" xmlns:serif="http://www.serif.com/" style="fill-rule:evenodd;clip-rule:evenodd;stroke-linejoin:round;stroke-miterlimit:2;">
    <g transform="matrix(1,0,0,1,-249.366667,-3933.025)">
        <g transform="matrix(4.166667,0,0,4.166667,0,0)">
            <g transform="matrix(-1,0,0,1,456.549,-2027.415)">
                <rect x="335.128" y="2971.341" width="61.573" height="61.573" style="fill:rgb(251,235,214);"/>
            </g>
        </g>
        <g transform="matrix(4.166667,0,0,4.166667,0,0)">
            <g transform="matrix(1,0,0,1,95.4197,966.2959)">
                <path d="M0,-0.097C1.644,2.349 2.275,5.198 1.768,8.277C1.432,10.318 0.565,12.126 -0.75,13.691C-1.615,12.828 -2.46,11.986 -3.33,11.119C-2.07,9.419 -1.499,7.485 -1.761,5.34C-1.997,3.418 -2.86,1.807 -4.279,0.493C-6.692,-1.742 -10.825,-2.553 -14.396,0.053C-15.228,-0.802 -16.059,-1.656 -16.891,-2.51C-14.363,-5.042 -8.092,-6.833 -2.569,-2.864C-0.232,-5.222 2.122,-7.597 4.477,-9.973C4.458,-10.018 4.438,-10.064 4.419,-10.109L-0.265,-10.109L-0.265,-13.779L0.273,-13.779C3.592,-13.779 6.911,-13.774 10.229,-13.786C10.632,-13.788 10.816,-13.723 10.813,-13.251C10.793,-9.897 10.803,-6.542 10.801,-3.187C10.801,-3.028 10.776,-2.868 10.761,-2.681L7.179,-2.681L7.179,-7.307C4.787,-4.905 2.42,-2.527 0,-0.097" style="fill:rgb(118,62,62);fill-rule:nonzero;"/>
            </g>
        </g>
        <g transform="matrix(4.166667,0,0,4.166667,0,0)">
            <g transform="matrix(1,0,0,1,80.1341,973.1146)">
                <path d="M0,16.346L3.884,16.346L3.884,14.757C3.884,13.652 3.861,12.545 3.896,11.441C3.911,10.971 3.747,10.831 3.296,10.737C-5.1,8.976 -8.66,-1.127 -3.237,-7.771C-3.203,-7.813 -3.158,-7.845 -3.149,-7.853C-2.313,-7 -1.481,-6.151 -0.599,-5.251C-1.934,-3.439 -2.503,-1.29 -2.018,1.078C-1.668,2.791 -0.815,4.236 0.497,5.394C3.008,7.611 7.03,8.28 10.513,5.758C11.354,6.604 12.192,7.449 13.063,8.325C11.986,9.274 10.701,9.956 9.297,10.428C8.897,10.561 8.486,10.695 8.071,10.743C7.63,10.796 7.488,10.971 7.496,11.412C7.521,12.867 7.504,14.324 7.506,15.779C7.506,15.942 7.525,16.104 7.54,16.33L11.389,16.33L11.389,20.001L10.369,20.001C9.614,20.001 8.856,20.034 8.103,19.989C7.594,19.959 7.479,20.15 7.495,20.62C7.527,21.596 7.506,22.573 7.507,23.549L7.507,24.199L3.884,24.199C3.884,23.312 3.892,22.434 3.881,21.556C3.875,21.064 4.021,20.393 3.765,20.13C3.511,19.872 2.835,20.014 2.345,20.004C1.7,19.991 1.054,20.014 0.41,19.989C0.271,19.983 0.02,19.839 0.018,19.754C-0.009,18.637 0,17.519 0,16.346" style="fill:rgb(118,62,62);fill-rule:nonzero;"/>
            </g>
        </g>
    </g>
</svg>
