<svg id="Layer_1" data-name="Layer 1" xmlns="http://www.w3.org/2000/svg" viewBox="0 0 52.83 63.93"><defs><style>.cls-1{fill:#f5f4f0;}</style></defs><path class="cls-1" d="M159.29,129.26v28.6c0,6-7.85,13.37-13.4,14.94-21.62,6.11-33.58-23.7-14.25-34.35,2-1.11,9.1-3.48,10.66-1.73.9,1,1.17,8.86-.89,9.44-3.48,1-5-.6-7.88,3.46-6.71,9.38,6.21,19.17,13.41,11.35.88-.95,2.56-4,2.56-5.17V110.46a5.17,5.17,0,0,1,.77-.78h9.27c2,5.42,2.67,10.4,8.66,13,2.21,1,4.68,1,6.54,2.22v8.25c0,2.22-9.64-.71-11-1.35C162.16,131,161,129.61,159.29,129.26Z" transform="translate(-121.91 -109.68)"/></svg>