<?xml version="1.0" encoding="UTF-8" standalone="no"?>
<!DOCTYPE svg PUBLIC "-//W3C//DTD SVG 1.1//EN" "http://www.w3.org/Graphics/SVG/1.1/DTD/svg11.dtd">
<svg width="100%" height="100%" viewBox="0 0 257 257" version="1.1" xmlns="http://www.w3.org/2000/svg" xmlns:xlink="http://www.w3.org/1999/xlink" xml:space="preserve" xmlns:serif="http://www.serif.com/" style="fill-rule:evenodd;clip-rule:evenodd;stroke-linejoin:round;stroke-miterlimit:2;">
    <g transform="matrix(1,0,0,1,-251.366667,-3077.625)">
        <g transform="matrix(4.166667,0,0,4.166667,0,0)">
            <g transform="matrix(-1,0,0,1,457.029,-2439.207)">
                <rect x="335.128" y="3177.837" width="61.573" height="61.573" style="fill:rgb(251,235,214);"/>
            </g>
        </g>
        <g transform="matrix(4.166667,0,0,4.166667,0,0)">
            <g transform="matrix(0,-1,-1,0,83.8565,752.3656)">
                <path d="M-4.219,-4.219C-6.549,-4.219 -8.438,-2.33 -8.438,0C-8.438,2.33 -6.549,4.219 -4.219,4.219C-1.889,4.219 0,2.33 0,0C0,-2.33 -1.889,-4.219 -4.219,-4.219" style="fill:rgb(118,62,62);fill-rule:nonzero;"/>
            </g>
        </g>
        <g transform="matrix(4.166667,0,0,4.166667,0,0)">
            <g transform="matrix(1,0,0,1,87.386,767.8472)">
                <path d="M0,-7.806C-0.898,-6.889 -2.148,-6.319 -3.529,-6.319C-4.911,-6.319 -6.161,-6.889 -7.058,-7.806C-8.056,-7.353 -8.951,-6.716 -9.7,-5.937C-9.495,-5.963 -9.286,-5.978 -9.073,-5.978C-6.347,-5.978 -4.129,-3.761 -4.129,-1.035C-4.129,-0.68 -4.167,-0.334 -4.239,0L-1.124,0C-0.231,-1.292 1.259,-2.14 2.945,-2.14C3.622,-2.14 4.267,-2.003 4.854,-1.756C4.291,-4.459 2.455,-6.694 0,-7.806" style="fill:rgb(118,62,62);fill-rule:nonzero;"/>
            </g>
        </g>
        <g transform="matrix(4.166667,0,0,4.166667,0,0)">
            <g transform="matrix(0,-1,-1,0,96.3394,752.3656)">
                <path d="M-4.219,-4.219C-6.549,-4.219 -8.438,-2.33 -8.438,0C-8.438,2.33 -6.549,4.219 -4.219,4.219C-1.889,4.219 0,2.33 0,0C0,-2.33 -1.889,-4.219 -4.219,-4.219" style="fill:rgb(118,62,62);fill-rule:nonzero;"/>
            </g>
        </g>
        <g transform="matrix(4.166667,0,0,4.166667,0,0)">
            <g transform="matrix(1,0,0,1,97.2771,761.0762)">
                <path d="M0,5.736C0,3.01 2.218,0.793 4.943,0.793C5.03,0.793 5.115,0.795 5.201,0.799C4.458,0.036 3.575,-0.59 2.592,-1.035C1.694,-0.118 0.444,0.452 -0.937,0.452C-2.318,0.452 -3.568,-0.118 -4.466,-1.035C-5.272,-0.669 -6.012,-0.182 -6.662,0.403C-5.363,1.783 -4.501,3.544 -4.226,5.449C-3.696,5.8 -3.238,6.249 -2.877,6.771L0.11,6.771C0.039,6.437 0,6.091 0,5.736" style="fill:rgb(118,62,62);fill-rule:nonzero;"/>
            </g>
        </g>
        <g transform="matrix(4.166667,0,0,4.166667,0,0)">
            <g transform="matrix(0,-1,-1,0,102.2202,762.5932)">
                <path d="M-4.219,-4.219C-6.549,-4.219 -8.438,-2.33 -8.438,0C-8.438,2.33 -6.549,4.219 -4.219,4.219C-1.889,4.219 0,2.33 0,0C0,-2.33 -1.889,-4.219 -4.219,-4.219" style="fill:rgb(118,62,62);fill-rule:nonzero;"/>
            </g>
        </g>
        <g transform="matrix(4.166667,0,0,4.166667,0,0)">
            <g transform="matrix(1,0,0,1,98.7874,770.2694)">
                <path d="M0,7.805L11.999,7.805C11.999,4.333 9.932,1.345 6.962,0C6.064,0.916 4.814,1.486 3.433,1.486C2.052,1.486 0.802,0.916 -0.096,0C-1.725,0.738 -3.081,1.971 -3.975,3.506C-2.201,4.485 -0.818,6.007 0,7.805" style="fill:rgb(118,62,62);fill-rule:nonzero;"/>
            </g>
        </g>
        <g transform="matrix(4.166667,0,0,4.166667,0,0)">
            <g transform="matrix(0,-1,-1,0,78.3135,762.5932)">
                <path d="M-4.219,-4.219C-6.549,-4.219 -8.438,-2.33 -8.438,0C-8.438,2.33 -6.549,4.219 -4.219,4.219C-1.889,4.219 0,2.33 0,0C0,-2.33 -1.889,-4.219 -4.219,-4.219" style="fill:rgb(118,62,62);fill-rule:nonzero;"/>
            </g>
        </g>
        <g transform="matrix(4.166667,0,0,4.166667,0,0)">
            <g transform="matrix(1,0,0,1,85.7537,774.5132)">
                <path d="M0,-0.683C-0.893,-2.244 -2.263,-3.497 -3.911,-4.244C-4.809,-3.328 -6.059,-2.758 -7.44,-2.758C-8.821,-2.758 -10.071,-3.328 -10.969,-4.244C-13.939,-2.898 -16.006,0.089 -16.006,3.561L-3.878,3.561C-3.075,1.796 -1.728,0.298 0,-0.683" style="fill:rgb(118,62,62);fill-rule:nonzero;"/>
            </g>
        </g>
        <g transform="matrix(4.166667,0,0,4.166667,0,0)">
            <g transform="matrix(1,0,0,1,93.8601,781.9126)">
                <path d="M0,-7.806C-0.898,-6.889 -2.148,-6.319 -3.529,-6.319C-4.91,-6.319 -6.16,-6.889 -7.058,-7.806C-10.028,-6.46 -12.095,-3.472 -12.095,0L5.037,0C5.037,-3.473 2.97,-6.461 0,-7.806" style="fill:rgb(118,62,62);fill-rule:nonzero;"/>
            </g>
        </g>
        <g transform="matrix(4.166667,0,0,4.166667,0,0)">
            <g transform="matrix(0,-1,-1,0,90.3306,766.4311)">
                <path d="M-4.219,-4.219C-6.549,-4.219 -8.438,-2.33 -8.438,0C-8.438,2.33 -6.549,4.219 -4.219,4.219C-1.889,4.219 0,2.33 0,0C0,-2.33 -1.889,-4.219 -4.219,-4.219" style="fill:rgb(118,62,62);fill-rule:nonzero;"/>
            </g>
        </g>
    </g>
</svg>
