<svg id="Layer_1" data-name="Layer 1" xmlns="http://www.w3.org/2000/svg" viewBox="0 0 61.57 61.57"><defs><style>.cls-1{fill:#faead6;}.cls-2,.cls-3{fill:#773f3f;}.cls-2{fill-rule:evenodd;}</style></defs><rect class="cls-1" width="61.57" height="61.57"/><path class="cls-2" d="M427.18,320.58h43v-3.51h-43v3.51Z" transform="translate(-417.87 -271.54)"/><path class="cls-2" d="M442.26,290.61V316.1h12.81V290.61Zm8.11,18.55c-.53,1.4-1,2.61-1.24,3.26a.48.48,0,0,1-.91,0c-.24-.65-.7-1.86-1.24-3.26-2-5.15-3.51-9.15-3.51-10a5.21,5.21,0,1,1,10.42,0C453.89,300,452.35,304,450.37,309.16Z" transform="translate(-417.87 -271.54)"/><path class="cls-2" d="M448.67,295a4.24,4.24,0,0,0-4.24,4.24c0,.72,2.25,6.52,3.44,9.62l.8,2.05c.22-.6.49-1.3.79-2.05,1.21-3.11,3.43-8.9,3.44-9.62A4.25,4.25,0,0,0,448.67,295Zm0,7a2.82,2.82,0,1,1,2.81-2.82A2.82,2.82,0,0,1,448.67,302Z" transform="translate(-417.87 -271.54)"/><path class="cls-2" d="M448.67,297.35a1.83,1.83,0,1,0,1.82,1.82A1.82,1.82,0,0,0,448.67,297.35Z" transform="translate(-417.87 -271.54)"/><path class="cls-2" d="M468.87,316.09V290.61H456.06V316.1ZM466,313.71h-7.07a.49.49,0,0,1-.49-.5v-7.06a.49.49,0,0,1,.49-.5H466a.49.49,0,0,1,.49.5v7.08A.5.5,0,0,1,466,313.71ZM466,301h-7.07a.49.49,0,0,1-.49-.5v-7.06a.48.48,0,0,1,.49-.49H466a.48.48,0,0,1,.49.49v7.06A.52.52,0,0,1,466,301Z" transform="translate(-417.87 -271.54)"/><rect class="cls-3" x="13.97" y="35.1" width="2.54" height="2.54"/><rect class="cls-3" x="13.97" y="38.63" width="2.54" height="2.54"/><rect class="cls-3" x="17.49" y="38.63" width="2.54" height="2.54"/><rect class="cls-3" x="17.49" y="35.1" width="2.54" height="2.54"/><path class="cls-2" d="M428.48,290.61V316.1h12.81V290.61Zm9.92,23.1h-7.06a.5.5,0,0,1-.5-.5v-7.06a.5.5,0,0,1,.5-.5h7.06a.49.49,0,0,1,.49.5v7.06A.48.48,0,0,1,438.4,313.71Zm0-12.68h-7.06a.5.5,0,0,1-.5-.5v-7.06a.49.49,0,0,1,.5-.49h7.06a.48.48,0,0,1,.49.49v7.06A.49.49,0,0,1,438.4,301Z" transform="translate(-417.87 -271.54)"/><rect class="cls-3" x="17.49" y="25.95" width="2.54" height="2.54"/><rect class="cls-3" x="13.97" y="25.95" width="2.54" height="2.54"/><rect class="cls-3" x="13.97" y="22.44" width="2.54" height="2.54"/><rect class="cls-3" x="17.49" y="22.44" width="2.54" height="2.54"/><rect class="cls-3" x="41.56" y="38.63" width="2.54" height="2.54"/><rect class="cls-3" x="41.56" y="35.1" width="2.54" height="2.54"/><rect class="cls-3" x="45.09" y="35.1" width="2.54" height="2.54"/><rect class="cls-3" x="45.09" y="38.63" width="2.54" height="2.54"/><rect class="cls-3" x="45.09" y="25.95" width="2.54" height="2.54"/><rect class="cls-3" x="45.09" y="22.44" width="2.54" height="2.54"/><rect class="cls-3" x="41.56" y="22.44" width="2.54" height="2.54"/><rect class="cls-3" x="41.56" y="25.95" width="2.54" height="2.54"/><path class="cls-2" d="M427.18,287.09v2.55h43v-2.55Z" transform="translate(-417.87 -271.54)"/><rect class="cls-3" x="14.96" y="12.15" width="31.65" height="3.98"/></svg>