<svg id="Layer_1" data-name="Layer 1" xmlns="http://www.w3.org/2000/svg" viewBox="0 0 76.96 54.91"><defs><style>.cls-1{fill:#f5f4f0;}</style></defs><path class="cls-1" d="M145.57,171.82c-5.53,0-11.44-.14-17.86-.4-.87,0-1.8,0-2.77,0-6.31-.05-15-.12-17.93-7.72-2.38-6.07-2.37-18.43-1.94-27.72.28-6,.8-17.24,13-18.29,4.94-.42,10.06-.52,15-.6L136,117c10.48-.21,20.61,0,30.12.65.57,0,1.12.06,1.65.07,2.42.08,4.93.16,7.78,2.08,5.62,3.8,5.83,10.66,6,15.66l.09,2.77c.32,7.72.84,20.64-2.52,26.78-3,5.41-7.55,5.73-11.6,6l-1,.07C160,171.57,153.11,171.82,145.57,171.82Zm-9.5-49.19-2.94.05c-4.86.09-9.88.18-14.63.59-6.1.52-7.41,4.76-7.78,12.92-.56,12,0,21.5,1.55,25.39s6.41,4.09,12.71,4.14c1,0,2,0,3,.06a321.81,321.81,0,0,0,38.08-.34l1-.08c4.13-.28,5.63-.51,7-3.09,2.6-4.76,2.08-17.64,1.83-23.83l-.1-2.83c-.14-4.41-.28-9-3.51-11.15-1.49-1-2.73-1-4.79-1.11-.59,0-1.21,0-1.85-.08C156.34,122.63,146.38,122.42,136.07,122.63Z" transform="translate(-104.85 -116.9)"/><polygon class="cls-1" points="31.37 17.85 31.37 37.04 50.31 27.28 31.37 17.85"/></svg>